<?xml version="1.0" encoding="UTF-8"?>
<svg width="130.97mm" height="131.29mm" version="1.1" viewBox="0 0 130.97 131.29" xmlns="http://www.w3.org/2000/svg">
 <defs>
  <filter id="filter3625" x="-.0019235" y="-.012645" width="1.0135" height="1.1043" color-interpolation-filters="sRGB">
   <feFlood flood-color="rgb(0,0,0)" result="flood"/>
   <feComposite in="flood" in2="SourceGraphic" operator="in" result="composite1"/>
   <feGaussianBlur in="composite1" result="blur" stdDeviation="0.1"/>
   <feOffset dx="1.2" dy="1.5" result="offset"/>
   <feComposite in="SourceGraphic" in2="offset" result="composite2"/>
  </filter>
 </defs>
 <g transform="translate(-39.071 -61.181)">
  <path d="m101.2 62.315c-4.5761 0.60085-9.0448 0.92621-13.547 2.1099-10.921 2.8714-20.882 8.7706-28.949 16.629-5.5428 5.3997-10.2 12.194-13.286 19.289-12.638 29.05-2.8863 64.334 24.456 81.313 5.5181 3.4265 11.488 6.1221 17.78 7.7765 8.6995 2.2874 17.696 2.7163 26.585 1.4559 32.022-4.54 56.265-34.346 54.857-66.5-1.2592-28.754-22.003-54.277-50.285-60.524-5.5521-1.2263-11.919-2.297-17.611-1.5496" fill="#fff" stroke="#fff" stroke-width="1.769" style="paint-order:stroke markers fill"/>
  <path d="m101.2 62.315c-4.5761 0.60085-9.0448 0.92621-13.547 2.1099-10.921 2.8714-20.882 8.7706-28.949 16.629-5.5428 5.3997-10.2 12.194-13.286 19.289-12.638 29.05-2.8863 64.334 24.456 81.313 5.5181 3.4265 11.488 6.1221 17.78 7.7765 8.6995 2.2874 17.696 2.7163 26.585 1.4559 32.022-4.54 56.265-34.346 54.857-66.5-1.2592-28.754-22.003-54.277-50.285-60.524-5.5521-1.2263-11.919-2.297-17.611-1.5496" fill="#192d42" stroke-width="0"/>
  <path d="m43.12 117.19c1.1968-0.36102 2.8194-0.087 4.0639-0.087h8.4667c1.2807 0 3.2449-0.37795 4.1515 0.77114 0.79028 1.0018 0.42046 2.9396 0.42046 4.1395v10.16c0 1.4442 0.13293 3.0092-1.5242 3.5695-1.2561 0.42486-2.9195 0.15579-4.2332 0.15579h-8.4667c-1.358 0-3.142 0.28482-4.0389-0.99653-0.72097-1.03-0.36374-2.8849-0.36374-4.0835v-9.9907c0-1.3965-0.16-3.1303 1.5241-3.6383m21.167 0c1.1967-0.36119 2.8194-0.087 4.0638-0.087h8.4667c1.2807 0 3.2449-0.37795 4.1515 0.77114 0.79028 1.0018 0.42045 2.9396 0.42045 4.1395v10.16c0 1.4442 0.13293 3.0092-1.5242 3.5695-1.2106 0.40945-2.7986 0.15579-4.0638 0.15579h-8.4667c-1.2869 0-3.2089 0.30378-4.1031-0.86919-0.81822-1.0734-0.46888-2.9423-0.46888-4.2108v-9.9907c0-1.3775-0.13293-3.1382 1.5242-3.6383m21.167 0c1.1967-0.36119 2.8194-0.087 4.0638-0.087h8.4667c1.2697 0 3.2182-0.39827 4.1253 0.72204 0.79689 0.98416 0.4467 2.834 0.4467 4.0193v10.329c0 1.4139 0.137 3.0656-1.5242 3.5892-1.2195 0.38438-2.7962 0.13614-4.0638 0.13614h-8.4667c-1.2869 0-3.2089 0.30378-4.1031-0.86919-0.81822-1.0734-0.46888-2.9423-0.46888-4.2108v-9.9907c0-1.3775-0.13293-3.1382 1.5242-3.6383m21.167 0c1.1967-0.36119 2.8194-0.087 4.0638-0.087h8.4667c1.2795 0 3.2058-0.39438 4.126 0.72204 0.90915 1.103 0.61535 2.8643 0.61535 4.1886v10.16c0 1.458-0.0237 3.0648-1.6933 3.5892-1.2207 0.38337-2.7955 0.13614-4.064 0.13614h-8.4667c-1.2685 0-3.2283 0.31106-4.0946-0.86919-0.80687-1.0993-0.47735-2.9291-0.47735-4.2108v-9.8213c0-1.4129-0.19236-3.2896 1.5242-3.8076m21.215-7e-3c1.1897-0.34679 2.7811-0.0804 4.0156-0.0804h8.4667c1.2868 0 3.2143-0.39065 4.1495 0.72204 0.8995 1.0704 0.59182 2.8973 0.59182 4.1886v10.16c0 1.458-0.0237 3.0648-1.6933 3.5892-1.2207 0.38337-2.7955 0.13614-4.064 0.13614h-8.4667c-1.2895 0-3.1994 0.29955-4.0946-0.8829-0.81517-1.0765-0.47735-2.9315-0.47735-4.1971v-9.9907c0-1.3848-0.0941-3.1594 1.5724-3.6449m21.167 0c1.1897-0.34679 2.7811-0.0804 4.0156-0.0804h8.4667c1.2966 0 3.2024-0.38659 4.1512 0.72204 0.91542 1.0693 0.59013 2.8885 0.59013 4.1886v10.16c0 1.458-0.0237 3.0648-1.6933 3.5892-1.2207 0.38337-2.7955 0.13614-4.064 0.13614h-8.4667c-1.415 0-3.1689 0.28143-4.1228-1.0234-0.77386-1.0585-0.44924-2.8172-0.44924-4.0566v-9.9907c0-1.3682-0.0676-3.1672 1.5724-3.6449m-84.399 15.027c1.6185 3.2856 11.547 2.7801 14.657 1.2433 0.9687-6.7446 1.6439-5.6062 0.10985-14.226-0.56828-0.33952-6.6748-1.3785-14.125-0.0324m21.931-1.5162c-5.6417 3.0826 0.30663 18.127 8.1336 16.845 7.7619-1.2712 4.6487-14.159 4.7593-15.306m6.9627 12.908c1.6876 3.0351 11.891 1.0773 14.986 1.9657-0.29016-9.5471 0.81243-12.148-1.0489-15.417-1.8906 0.0578-12.517-0.24788-14.155 0.64781m22.165 0.26729c-3.2365 4.8812 0.63316 15.598 8.5151 14.077 7.6506-1.4762 6.0405-9.5734 1.0882-16.094m25.758 16.281-0.87312-15.27-14.554 0.0636s-0.27839 12.993 0.0566 15.326" fill="#fff" filter="url(#filter3625)"/>
  <path d="m43.459 117.19c1.1968-0.36102 2.8194-0.087 4.0639-0.087h8.4667c1.2807 0 3.2449-0.37795 4.1515 0.77114 0.79028 1.0018 0.42046 2.9396 0.42046 4.1395v10.16c0 1.4442 0.13293 3.0092-1.5242 3.5695-1.2561 0.42486-2.9195 0.15579-4.2332 0.15579h-8.4667c-1.358 0-3.142 0.28482-4.0389-0.99653-0.72097-1.03-0.36374-2.8849-0.36374-4.0835v-9.9907c0-1.3965-0.16-3.1303 1.5241-3.6383m21.167 0c1.1967-0.36119 2.8194-0.087 4.0638-0.087h8.4667c1.2807 0 3.2449-0.37795 4.1515 0.77114 0.79028 1.0018 0.42045 2.9396 0.42045 4.1395v10.16c0 1.4442 0.13293 3.0092-1.5242 3.5695-1.2106 0.40945-2.7986 0.15579-4.0638 0.15579h-8.4667c-1.2869 0-3.2089 0.30378-4.1031-0.86919-0.81822-1.0734-0.46888-2.9423-0.46888-4.2108v-9.9907c0-1.3775-0.13293-3.1382 1.5242-3.6383m21.167 0c1.1967-0.36119 2.8194-0.087 4.0638-0.087h8.4667c1.2697 0 3.2182-0.39827 4.1253 0.72204 0.79689 0.98416 0.4467 2.834 0.4467 4.0193v10.329c0 1.4139 0.137 3.0656-1.5242 3.5892-1.2195 0.38438-2.7962 0.13614-4.0638 0.13614h-8.4667c-1.2869 0-3.2089 0.30378-4.1031-0.86919-0.81822-1.0734-0.46888-2.9423-0.46888-4.2108v-9.9907c0-1.3775-0.13293-3.1382 1.5242-3.6383m21.167 0c1.1967-0.36119 2.8194-0.087 4.0638-0.087h8.4667c1.2795 0 3.2058-0.39438 4.126 0.72204 0.90915 1.103 0.61535 2.8643 0.61535 4.1886v10.16c0 1.458-0.0237 3.0648-1.6933 3.5892-1.2207 0.38337-2.7955 0.13614-4.064 0.13614h-8.4667c-1.2685 0-3.2283 0.31106-4.0946-0.86919-0.80687-1.0993-0.47735-2.9291-0.47735-4.2108v-9.8213c0-1.4129-0.19236-3.2896 1.5242-3.8076m21.215-7e-3c1.1897-0.34679 2.7811-0.0804 4.0156-0.0804h8.4667c1.2868 0 3.2143-0.39065 4.1495 0.72204 0.8995 1.0704 0.59182 2.8973 0.59182 4.1886v10.16c0 1.458-0.0237 3.0648-1.6933 3.5892-1.2207 0.38337-2.7955 0.13614-4.064 0.13614h-8.4667c-1.2895 0-3.1994 0.29955-4.0946-0.8829-0.81517-1.0765-0.47735-2.9315-0.47735-4.1971v-9.9907c0-1.3848-0.0941-3.1594 1.5724-3.6449m21.167 0c1.1897-0.34679 2.7811-0.0804 4.0156-0.0804h8.4667c1.2966 0 3.2024-0.38659 4.1512 0.72204 0.91542 1.0693 0.59013 2.8885 0.59013 4.1886v10.16c0 1.458-0.0237 3.0648-1.6933 3.5892-1.2207 0.38337-2.7955 0.13614-4.064 0.13614h-8.4667c-1.415 0-3.1689 0.28143-4.1228-1.0234-0.77386-1.0585-0.44924-2.8172-0.44924-4.0566v-9.9907c0-1.3682-0.0676-3.1672 1.5724-3.6449m-78.111 3.0426c-4.2156 0.70883-5.8537 6.3806-4.1123 9.9157 1.6185 3.2856 6.0818 4.0535 9.1921 2.5166 0.88409-0.43688 2.6115-2.6084 0.67496-2.9329-1.0788-0.18067-2.3449 1.2839-3.5535 1.4033-3.6288 0.35865-5.8633-3.4006-4.2606-6.575 0.99991-1.9807 3.5416-2.943 5.43-1.5494 0.78842 0.582 1.1423 2.6482 2.5087 1.8335 0.88849-0.52951 0.88765-3.5943 0-4.1243-0.56828-0.33952-1.2099 1e-3 -1.8154-0.0855-1.3936-0.19947-2.6199-0.64482-4.064-0.402m21.167 0c-7.6048 1.2786-5.7949 14.36 2.032 13.078 7.7619-1.2712 5.9751-14.424-2.032-13.078m21.336-2e-3c-4.4977 0.66599-6.1058 6.6135-4.0803 10.257 1.6876 3.0351 6.055 3.6241 8.9909 2.178 0.89866-0.44264 2.6563-2.601 0.6748-2.9329-1.079-0.1805-2.3448 1.2839-3.5535 1.4033-3.6464 0.36051-5.8195-3.4053-4.2333-6.575 0.97841-1.9553 3.5186-2.965 5.4028-1.575 0.77674 0.57302 1.1677 2.6851 2.5173 1.8826 0.88579-0.5268 0.88511-3.6444 0-4.1714-0.52679-0.31361-1.0966-0.0124-1.6547-0.0444-1.4119-0.0813-2.5886-0.64042-4.064-0.42198m20.997 2e-3c-7.692 1.2934-5.6806 14.59 2.2013 13.069 7.6506-1.4762 5.7221-14.402-2.2013-13.069m19.135 5.1743h0.16933c0.42045 1.2348 1.9067 6.2238 3.9697 4.4699 1.2096-1.0284 1.1218-3.1956 2.2956-4.3006v5.2493c-0.89865 0.0186-2.9904 0.73067-1.6198 1.9299 0.64245 0.56202 3.9062 0.54881 4.6206 0.0974 1.2837-0.81094-0.7918-2.4614-0.79925-3.5513-0.0127-1.8481-0.26162-3.9318 0.0249-5.7567 0.13157-0.83786 1.2229-1.3023 1.0685-2.1947-0.20811-1.2011-2.9357-1.4088-3.7086-0.75184-0.70967 0.60334-0.9972 1.9455-1.3618 2.7766-0.44145 1.0067-0.9696 1.9886-1.2725 3.048h-0.33866c-0.59826-1.5421-1.4432-4.7955-2.7559-5.8246-0.71374-0.5593-3.119-0.5019-3.525 0.444-0.43264 1.0077 0.69817 1.4569 0.83719 2.3351 0.28922 1.8281 0.0259 3.9033 0.0251 5.7548-5.1e-4 1.216-1.3184 2.0633-1.124 3.0448 0.26636 1.3454 5.1506 1.366 5.4212 0 0.28651-1.4458-1.6029-0.98925-1.9937-1.8845-0.50156-1.1493-0.21742-3.6901 0.0672-4.8856m-61.129-2.982c4.9875-1.0861 6.2638 7.5218 1.524 8.6492-5.0057 1.1906-6.3441-7.5993-1.524-8.6492m42.333 0c5.0001-1.0888 6.2628 7.522 1.524 8.6492-4.9928 1.1875-6.3185-7.6049-1.524-8.6492m25.4 2.982-0.16934 0.16934z" fill="#fff"/>
 </g>
</svg>
