<?xml version="1.0" encoding="UTF-8" standalone="no"?>
<!-- Created with Inkscape (http://www.inkscape.org/) -->

<svg
   width="86.651108mm"
   height="87.915421mm"
   viewBox="0 0 86.651108 87.915421"
   version="1.1"
   id="svg5"
   inkscape:version="1.1 (c4e8f9ed74, 2021-05-24)"
   sodipodi:docname="eacomp_logo.svg"
   inkscape:export-filename="/home/uotlaf/eacomp.png"
   inkscape:export-xdpi="300.16"
   inkscape:export-ydpi="300.16"
   xmlns:inkscape="http://www.inkscape.org/namespaces/inkscape"
   xmlns:sodipodi="http://sodipodi.sourceforge.net/DTD/sodipodi-0.dtd"
   xmlns:xlink="http://www.w3.org/1999/xlink"
   xmlns="http://www.w3.org/2000/svg"
   xmlns:svg="http://www.w3.org/2000/svg">
  <sodipodi:namedview
     id="namedview7"
     pagecolor="#505050"
     bordercolor="#eeeeee"
     borderopacity="1"
     inkscape:pageshadow="0"
     inkscape:pageopacity="0"
     inkscape:pagecheckerboard="0"
     inkscape:document-units="mm"
     showgrid="false"
     inkscape:snap-bbox="false"
     inkscape:bbox-paths="false"
     inkscape:bbox-nodes="false"
     inkscape:zoom="1"
     inkscape:cx="70"
     inkscape:cy="127.5"
     inkscape:window-width="1920"
     inkscape:window-height="1007"
     inkscape:window-x="0"
     inkscape:window-y="40"
     inkscape:window-maximized="1"
     inkscape:current-layer="layer6"
     fit-margin-top="0"
     fit-margin-left="0"
     fit-margin-right="0"
     fit-margin-bottom="0" />
  <defs
     id="defs2">
    <linearGradient
       id="Camaleao"
       inkscape:swatch="solid">
      <stop
         style="stop-color:#00b900;stop-opacity:1;"
         offset="0"
         id="stop840" />
    </linearGradient>
    <linearGradient
       id="Gradiente"
       inkscape:swatch="gradient">
      <stop
         style="stop-color:#000000;stop-opacity:1;"
         offset="0"
         id="stop12798" />
      <stop
         style="stop-color:#000000;stop-opacity:0;"
         offset="1"
         id="stop12800" />
    </linearGradient>
    <linearGradient
       inkscape:collect="always"
       xlink:href="#Gradiente"
       id="linearGradient838"
       gradientUnits="userSpaceOnUse"
       gradientTransform="translate(-0.01669325,-0.1583365)"
       x1="109.34988"
       y1="346.55185"
       x2="107.42884"
       y2="122.23821" />
    <linearGradient
       inkscape:collect="always"
       xlink:href="#Camaleao"
       id="linearGradient844"
       x1="62.589489"
       y1="148.40525"
       x2="148.64657"
       y2="148.40525"
       gradientUnits="userSpaceOnUse" />
  </defs>
  <g
     inkscape:groupmode="layer"
     id="layer8"
     inkscape:label="Sombra"
     style="display:inline"
     transform="translate(-62.589489,-103.78457)">
    <path
       style="display:inline;fill:#c4c4c4;fill-opacity:1;stroke:none;stroke-width:0.065;stroke-linecap:butt;stroke-linejoin:miter;stroke-miterlimit:4;stroke-dasharray:none;stroke-opacity:1"
       d="m 99.017758,131.76806 -0.676269,-4.47061 1.17293,-2.10192 0.659771,-0.67804 c 0,0 2.27256,-1.08487 5.1316,-0.94926 2.85904,0.13561 16.56776,0.47463 25.21817,13.22177 0,0 0.13007,5.94059 -6.44325,8.59915 l -5.72268,-2.87264 0.18898,5.96706 c 0,0 -2.20143,1.37559 -4.6922,1.43132 -2.49077,0.0557 -5.21472,-1.03793 -9.39245,-3.31039 0,0 -0.41966,-0.0806 -0.54837,-0.0172 -0.12871,0.0634 -0.96392,0.46358 -1.39506,1.04077 -0.43112,0.5772 -2.740935,3.45307 -2.660908,9.84065 0,0 3.066838,1.39588 2.753198,2.96549 l -0.0611,0.20598 c 0,0 -1.83109,-0.0448 -5.622774,3.05799 0,0 -0.138216,0.0717 -0.353007,0.005 -0.214792,-0.0667 -0.427068,-0.2737 -0.450465,-0.45922 -0.0234,-0.18552 -0.02984,-1.17578 0.0129,-1.2606 0.04274,-0.0848 1.496798,-3.6781 1.496798,-3.6781 0,0 -0.427338,-4.00802 -0.396568,-4.32567 0.03077,-0.31765 0.615854,-5.05596 0.615854,-5.05596 0,0 0.01474,-0.31243 -0.260635,-0.18721 -0.275379,0.12522 -8.281975,4.49974 -8.147266,13.43619 0,0 2.078583,14.11723 18.576763,14.34817 14.33441,0.20066 28.55515,-11.89619 28.80068,-30.46017 0,0 0.40574,-31.58196 -32.18767,-34.43155 0,0 -26.490316,-2.44037 -36.749058,22.14415 0,0 -0.775405,2.00931 -0.70675,4.75729 0.06866,2.74798 2.646061,1.74606 2.646061,1.74606 0,0 2.182066,-0.48966 1.830888,-1.5468 0,0 0.06327,-0.6429 -1.109032,-0.38532 -1.1723,0.25758 -1.478142,-1.18861 -1.478142,-1.18861 0,0 0.185992,-2.23456 1.803621,-2.26329 1.61763,-0.0287 2.932603,1.34215 2.95788,2.54057 0.02528,1.19843 1.101431,4.26852 -5.828074,6.13522 0,0 -4.719847,0.23315 -4.811586,-4.91839 -0.07929,-4.45271 0.526909,-4.56672 1.087202,-6.84974 1.729892,-7.04876 16.503281,-28.11211 41.15808,-28.0153 29.19296,0.11463 43.28404,22.89327 43.78071,39.17572 0.82678,27.1043 -19.75725,47.13202 -44.51212,47.05794 -27.453341,-0.0822 -32.725097,-19.39698 -33.493989,-31.06069 2.562108,-20.99352 18.857958,-24.18588 27.807337,-27.18981 z"
       id="path3794-6-2"
       sodipodi:nodetypes="ccccsccccscssccccssscscscscccsccscsscssssscc" />
    <path
       style="display:inline;fill:#c4c4c4;fill-opacity:1;stroke:none;stroke-width:0.065;stroke-linecap:butt;stroke-linejoin:miter;stroke-miterlimit:4;stroke-dasharray:none;stroke-opacity:1"
       d="m 98.468185,133.44928 -0.676269,-4.47061 1.17293,-2.10192 0.659771,-0.67804 c 0,0 2.272563,-1.08487 5.131603,-0.94926 2.85904,0.13561 16.56776,0.47463 25.21817,13.22177 0,0 0.13007,5.94059 -6.44325,8.59915 l -5.72268,-2.87264 0.18898,5.96706 c 0,0 -2.20143,1.37559 -4.6922,1.43132 -2.49077,0.0557 -5.21472,-1.03793 -9.39245,-3.31039 0,0 -0.41966,-0.0806 -0.54837,-0.0172 -0.12871,0.0634 -0.96392,0.46358 -1.39506,1.04077 -0.43112,0.5772 -2.740938,3.45307 -2.660911,9.84065 0,0 3.066841,1.39588 2.753201,2.96549 l -0.0611,0.20598 c 0,0 -1.83109,-0.0448 -5.622777,3.05799 0,0 -0.138216,0.0717 -0.353007,0.005 -0.214792,-0.0667 -0.427068,-0.2737 -0.450465,-0.45922 -0.0234,-0.18552 -0.02984,-1.17578 0.0129,-1.2606 0.04274,-0.0848 1.496798,-3.6781 1.496798,-3.6781 0,0 -0.427338,-4.00802 -0.396568,-4.32567 0.03077,-0.31765 0.615854,-5.05596 0.615854,-5.05596 0,0 0.01474,-0.31243 -0.260635,-0.18721 -0.275379,0.12522 -8.281975,4.49974 -8.147266,13.43619 0,0 2.078583,14.11723 18.576766,14.34817 14.33441,0.20066 28.55515,-11.89619 28.80068,-30.46017 0,0 0.40574,-31.58196 -32.18767,-34.43155 0,0 -26.490319,-2.44037 -36.749061,22.14415 0,0 -0.775405,2.00931 -0.70675,4.75729 0.06866,2.74798 2.646061,1.74606 2.646061,1.74606 0,0 2.182066,-0.48966 1.830888,-1.5468 0,0 0.06327,-0.6429 -1.109032,-0.38532 -1.1723,0.25758 -1.478142,-1.18861 -1.478142,-1.18861 0,0 0.185992,-2.23456 1.803621,-2.26329 1.61763,-0.0287 2.932603,1.34215 2.95788,2.54057 0.02528,1.19843 1.101431,4.26852 -5.828074,6.13522 0,0 -4.719847,0.23315 -4.811586,-4.91839 -0.07929,-4.45271 0.526909,-4.56672 1.087202,-6.84974 1.729892,-7.04876 16.503281,-28.11211 41.158083,-28.0153 29.19296,0.11463 43.28404,22.89327 43.78071,39.17572 0.82678,27.1043 -19.75725,47.13202 -44.51212,47.05794 -27.453344,-0.0822 -32.7251,-19.39698 -33.493992,-31.06069 2.562108,-20.99352 18.857958,-24.18588 27.807337,-27.18981 z"
       id="path3794-6-2-9"
       sodipodi:nodetypes="ccccsccccscssccccssscscscscccsccscsscssssscc" />
  </g>
  <g
     inkscape:groupmode="layer"
     id="layer9"
     inkscape:label="Língua"
     transform="translate(-62.589489,-103.78457)">
    <path
       style="display:inline;fill:#c4c4c4;fill-opacity:1;stroke:none;stroke-width:0.264583px;stroke-linecap:butt;stroke-linejoin:miter;stroke-opacity:1"
       d="m 117.95298,149.98715 1.17112,-0.96482 -0.0727,-4.70774 -1.68933,-0.83675 -0.27409,6.6364 z"
       id="path14258" />
    <path
       style="fill:#000000;fill-opacity:1;stroke:#000000;stroke-width:0.264583px;stroke-linecap:butt;stroke-linejoin:miter;stroke-opacity:1"
       d="m 118.73579,147.41654 c 0.2424,1.63462 -0.70971,1.39967 -0.97065,2.25654 l -0.38137,-4.92255 0.40564,-1.37825 z"
       id="path14326"
       sodipodi:nodetypes="ccccc" />
  </g>
  <g
     inkscape:groupmode="layer"
     id="layer7"
     inkscape:label="Fundo"
     style="display:inline"
     transform="translate(-62.589489,-103.78457)">
    <path
       style="display:inline;fill:url(#linearGradient844);fill-opacity:1;stroke:none;stroke-width:0.065;stroke-linecap:butt;stroke-linejoin:miter;stroke-miterlimit:4;stroke-dasharray:none;stroke-opacity:1"
       d="m 98.423736,133.27164 -0.676269,-4.47061 1.17293,-2.10192 0.659776,-0.67804 c 0,0 2.272557,-1.08487 5.131597,-0.94926 2.85904,0.13561 16.56775,0.47463 25.21816,13.22177 0,0 0.13007,5.94059 -6.44325,8.59915 l -5.72268,-2.87264 0.18898,5.96706 c 0,0 -2.20143,1.37559 -4.6922,1.43132 -2.49077,0.0557 -5.21471,-1.03793 -9.39244,-3.31039 0,0 -0.41966,-0.0806 -0.54837,-0.0172 -0.12871,0.0634 -0.96392,0.46358 -1.39506,1.04077 -0.43112,0.5772 -2.740937,3.45307 -2.66091,9.84065 0,0 3.06684,1.39588 2.7532,2.96549 l -0.0611,0.20598 c 0,0 -1.83109,-0.0448 -5.622776,3.05799 0,0 -0.138216,0.0717 -0.353007,0.005 -0.214792,-0.0667 -0.427068,-0.2737 -0.450465,-0.45922 -0.0234,-0.18552 -0.02984,-1.17578 0.0129,-1.2606 0.04274,-0.0848 1.496798,-3.6781 1.496798,-3.6781 0,0 -0.427338,-4.00802 -0.396568,-4.32567 0.03077,-0.31765 0.615854,-5.05596 0.615854,-5.05596 0,0 0.01474,-0.31243 -0.260635,-0.18721 -0.275379,0.12522 -8.281975,4.49974 -8.147266,13.43619 0,0 2.078583,14.11723 18.576765,14.34817 14.3344,0.20066 28.55514,-11.89619 28.80067,-30.46017 0,0 0.40574,-31.58196 -32.18766,-34.43155 0,0 -26.490318,-2.44037 -36.74906,22.14415 0,0 -0.775405,2.00931 -0.70675,4.75729 0.06866,2.74798 2.646061,1.74606 2.646061,1.74606 0,0 2.182066,-0.48966 1.830888,-1.5468 0,0 0.06327,-0.6429 -1.109032,-0.38532 -1.1723,0.25758 -1.478142,-1.18861 -1.478142,-1.18861 0,0 0.185992,-2.23456 1.803621,-2.26329 1.61763,-0.0287 2.932603,1.34215 2.95788,2.54057 0.02528,1.19843 1.101431,4.26852 -5.828074,6.13522 0,0 -4.719847,0.23315 -4.811586,-4.91839 -0.07929,-4.45271 0.526909,-4.56672 1.087202,-6.84974 1.729892,-7.04876 16.503281,-28.11211 41.158082,-28.0153 29.19295,0.11463 43.28403,22.89327 43.7807,39.17572 0.82678,27.1043 -19.75725,47.13202 -44.51211,47.05794 -27.453343,-0.0822 -32.725099,-19.39698 -33.493991,-31.06069 2.562108,-20.99352 18.857958,-24.18588 27.807337,-27.18981 z"
       id="path3794-6"
       sodipodi:nodetypes="ccccsccccscssccccssscscscscccsccscsscssssscc" />
  </g>
  <g
     inkscape:groupmode="layer"
     id="layer6"
     inkscape:label="Fundo_gradiente"
     style="display:inline"
     transform="translate(-62.589489,-103.78457)">
    <path
       style="display:inline;fill:url(#linearGradient838);fill-opacity:1;stroke:none;stroke-width:0.065;stroke-linecap:butt;stroke-linejoin:miter;stroke-miterlimit:4;stroke-dasharray:none;stroke-opacity:1"
       d="m 98.423836,133.27164 -0.676264,-4.47061 1.172924,-2.10192 0.659774,-0.67804 c 0,0 2.27255,-1.08487 5.13157,-0.94926 2.85902,0.13561 16.56765,0.47463 25.21802,13.22177 0,0 0.13007,5.94059 -6.44322,8.59915 l -5.72264,-2.87264 0.18898,5.96706 c 0,0 -2.20142,1.37559 -4.69218,1.43132 -2.49076,0.0557 -5.21468,-1.03793 -9.39239,-3.31039 0,0 -0.41965,-0.0806 -0.54836,-0.0172 -0.12871,0.0634 -0.96392,0.46358 -1.39505,1.04077 -0.43112,0.5772 -2.74093,3.45307 -2.6609,9.84065 0,0 3.06682,1.39588 2.75319,2.96549 l -0.0611,0.20598 c 0,0 -1.83109,-0.0448 -5.622752,3.05799 0,0 -0.138217,0.0717 -0.353007,0.005 -0.21479,-0.0667 -0.427057,-0.2737 -0.450457,-0.45922 -0.0234,-0.18552 -0.0298,-1.17578 0.0129,-1.2606 0.0427,-0.0848 1.496791,-3.6781 1.496791,-3.6781 0,0 -0.427337,-4.00802 -0.396567,-4.32567 0.0308,-0.31765 0.615847,-5.05596 0.615847,-5.05596 0,0 0.0147,-0.31243 -0.26063,-0.18721 -0.275377,0.12522 -8.281932,4.49974 -8.147222,13.43619 0,0 2.078568,14.11723 18.576657,14.34817 14.33432,0.20066 28.555,-11.89619 28.80053,-30.46017 0,0 0.40574,-31.58196 -32.1875,-34.43155 0,0 -26.490164,-2.44037 -36.748889,22.14415 0,0 -0.775405,2.00931 -0.70675,4.75729 0.06866,2.74798 2.646061,1.74606 2.646061,1.74606 0,0 2.182066,-0.48966 1.830888,-1.5468 0,0 0.06327,-0.6429 -1.109032,-0.38532 -1.1723,0.25758 -1.478142,-1.18861 -1.478142,-1.18861 0,0 0.185992,-2.23456 1.803621,-2.26329 1.61763,-0.0287 2.932603,1.34215 2.95788,2.54057 0.02528,1.19843 1.101427,4.26852 -5.828074,6.13522 0,0 -4.719847,0.23315 -4.811586,-4.91839 -0.07929,-4.45271 0.526909,-4.56672 1.087202,-6.84974 1.729892,-7.04876 16.503252,-28.11212 41.157911,-28.01531 29.19279,0.11463 43.28387,22.89328 43.78054,39.17573 0.82678,27.1043 -19.75723,47.13202 -44.51195,47.05794 -27.453188,-0.0822 -32.724928,-19.39698 -33.49382,-31.06069 2.562108,-20.99352 18.857867,-24.18588 27.807196,-27.18981 z"
       id="path3794"
       sodipodi:nodetypes="ccccsccccscssccccssscscscscccsccscsscssssscc" />
  </g>
  <g
     inkscape:groupmode="layer"
     id="layer4"
     inkscape:label="Clara"
     style="display:inline"
     transform="translate(-62.589489,-103.78457)">
    <path
       style="display:inline;opacity:1;fill:#ffffff"
       id="path2497-5"
       sodipodi:type="arc"
       sodipodi:cx="111.04034"
       sodipodi:cy="134.82098"
       sodipodi:rx="5.7380333"
       sodipodi:ry="5.2720828"
       sodipodi:start="0"
       sodipodi:end="6.2796074"
       sodipodi:open="true"
       sodipodi:arc-type="arc"
       d="m 116.77837,134.82098 a 5.7380333,5.2720828 0 0 1 -5.7329,5.27208 5.7380333,5.2720828 0 0 1 -5.74316,-5.26264 5.7380333,5.2720828 0 0 1 5.72263,-5.2815 5.7380333,5.2720828 0 0 1 5.75339,5.2532" />
  </g>
  <g
     inkscape:groupmode="layer"
     id="layer5"
     inkscape:label="Iris"
     style="display:inline"
     transform="translate(-62.589489,-103.78457)">
    <path
       style="opacity:1;fill:#000000"
       id="path3072"
       sodipodi:type="arc"
       sodipodi:cx="113.55018"
       sodipodi:cy="136.39502"
       sodipodi:rx="2.4024549"
       sodipodi:ry="2.3411961"
       sodipodi:start="0"
       sodipodi:end="6.2796074"
       sodipodi:open="true"
       sodipodi:arc-type="arc"
       d="m 115.95263,136.39502 a 2.4024549,2.3411961 0 0 1 -2.4003,2.34119 2.4024549,2.3411961 0 0 1 -2.4046,-2.337 2.4024549,2.3411961 0 0 1 2.396,-2.34538 2.4024549,2.3411961 0 0 1 2.40889,2.33281" />
  </g>
</svg>
