<?xml version="1.0" encoding="UTF-8"?>
<svg width="529.12mm" height="510.23mm" version="1.1" viewBox="0 0 529.12 510.23" xmlns="http://www.w3.org/2000/svg">
 <g transform="translate(129.4 140.83)">
  <path transform="scale(.26458)" d="m328-131.37c-4.4149 0.13662-8.7564 0.44286-12.998 0.94336-35.46 4.184-69.481 6.2496-104 16.988-79.835 24.833-148.84 81.405-192.77 151.96-21.261 34.152-35.537 71.543-44.406 110.67-5.9067 26.047-6.8262 52.1-6.8262 78.668 0 204.05 192.98 359.62 390.67 339.77 161.11-16.172 295.5-151.84 306.55-313.11 11.013-160.83-85.507-322.4-242.55-370.7-28.308-8.7057-62.764-16.154-93.668-15.197z" fill="#fff" stroke-linecap="round" stroke-linejoin="round" stroke-width="25.213" style="paint-order:markers fill stroke"/>
  <rect transform="rotate(-45.116)" x="-12.281" y="299.43" width="65.423" height="230.74" ry="32.502" fill="#161635" stroke-linecap="round" stroke-linejoin="round" stroke-width="1.765" style="paint-order:markers fill stroke"/>
  <path transform="scale(.26458)" d="m341.53-258.67c-11.298-0.1933-22.415 0.34917-33.189 1.7637-34.273 4.5-67.684 6.648-101.33 16-99.708 27.717-189.55 88.003-254.07 168.77-58.036 72.653-92.798 160.63-99.146 253.33-12.307 179.7 103.05 359.82 262.55 436.99 97.824 47.332 212.37 62.532 317.33 31.383 36.053-10.699 70.736-25.196 104-42.748 11.035-5.8227 32.575-23.293 45.334-21.701 8.6773 1.0827 17.849 12.982 24 18.518 20.78 18.703 40.451 38.873 59.979 58.893 36.653 37.573 72.191 76.23 109.35 113.33 12.828 12.805 32.176 24.753 44.656 38.844l59.299-53.49 43.996-52.544c-5.4391-5.4057-10.063-13.122-14.738-18.145-16.053-17.261-32.533-33.991-49.213-50.666-33.693-33.693-67.799-67.404-102.67-99.883-20.027-18.655-45.408-38.409-60.512-61.451-4.3654-6.6587 1.0305-12.678 4.1719-18.666 7.716-14.712 16.195-28.959 23.299-44 26.441-55.987 44.653-119.43 48.92-181.33 13.6-197.5-104.05-384.16-287.88-460.02-42.817-17.667-95.188-32.346-144.14-33.184zm-13.523 127.3c30.904-0.9564 65.36 6.4916 93.668 15.197 157.04 48.297 253.56 209.87 242.55 370.7-11.045 161.27-145.43 296.94-306.55 313.11-197.69 19.844-390.67-135.73-390.67-339.77 0-26.568 0.91951-52.621 6.8262-78.668 8.8693-39.123 23.145-76.514 44.406-110.67 43.928-70.56 112.93-127.13 192.77-151.96 34.519-10.739 68.54-12.804 104-16.988 4.2417-0.5005 8.5832-0.80674 12.998-0.94336zm1144 1492.9c-0.6277 0.6068-1.2534 1.2157-1.8906 1.8066 0.636-0.5973 1.2684-1.1965 1.8906-1.8066zm-3.7734 3.5195c-1.2549 1.1172-2.5147 2.2263-3.8028 3.2832 1.293-1.0693 2.5594-2.164 3.8028-3.2832zm-3.8789 3.3457c-7.8373 6.4206-16.277 11.713-25.102 15.906 9.1445-4.2889 17.538-9.6613 25.102-15.906zm-25.914 16.303c-0.809 0.3771-1.632 0.7119-2.4473 1.0703 0.8182-0.3538 1.6405-0.6994 2.4473-1.0703zm-7.1543 3.0293c-0.032 0.013-0.065 0.024-0.098 0.037 0.033-0.012 0.065-0.025 0.098-0.037z" fill="#3d3d79"/>
  <path d="m44.539 18.307c16.512 4.5159 27.131 26.369 13.698 39.804-7.8624 7.8634-18.565 7.8214-28.867 7.8214 1.421 33.103 38.563 53.478 68.439 47.467 23.959-4.8204 43.447-25.751 45.801-50.289 3.0106-31.379-20.126-61.309-52.151-63.883-12.744-1.0245-25.8 1.1931-36.689 8.2659-4.0227 2.613-8.708 6.0357-10.231 10.814z" fill="#3e4095"/>
  <path d="m315.83-28.612c-2.921-7.5971-12.594-14.271-18.697-19.315-16.782-13.867-34.84-26.288-53.269-37.853-46.965-29.471-100.53-50.813-156.28-54.631-45.927-3.1456-94.481 11.498-132.64 36.658-28.841 19.014-55.184 45.015-72.418 75.141-4.3146 7.542-8.8889 15.481-11.009 23.989-0.54606 2.1918-2.157 7.8006 0.91405 8.824 2.2745 0.75812 4.886-1.7593 6.4135-3.09 4.984-4.3416 8.938-9.7998 13.089-14.906 16.146-19.861 36.524-37.336 57.718-51.622 26.739-18.024 56.049-33.657 87.842-40.379 33.239-7.028 69.458-3.2992 102.31 3.9557 38.525 8.5094 74.291 26.524 106.54 48.895 10.911 7.5685 20.927 16.209 31.044 24.772 2.7799 2.3548 5.461 4.8556 8.1139 7.3529 1.0195 0.9592 2.1378 2.583 3.5278 3 1.9544 0.58632 5.6198-1.8584 7.4083-2.6257 6.4488-2.7668 12.912-5.5051 19.403-8.1668" fill="#3e4095"/>
 </g>
</svg>
