<?xml version="1.0" encoding="UTF-8"?>
<svg width="116.64mm" height="116.79mm" version="1.1" viewBox="0 0 116.64 116.79" xmlns="http://www.w3.org/2000/svg">
 <g transform="translate(-57.496 -73.532)" fill="#381460" stroke-width=".35278">
  <path d="m109.55 190.08c-6.0331-0.98863-7.8618-1.3448-10.231-1.9923-1.8038-0.49308-4.5935-1.4526-5.909-2.0325-0.63059-0.27796-1.7418-0.75685-2.4694-1.0642-1.4278-0.60314-1.9676-0.87812-3.9289-2.0014-0.70102-0.4015-1.708-0.95225-2.2377-1.2239-0.52972-0.27163-1.0488-0.63253-1.1535-0.80198-0.21924-0.35473-2.2493-1.4111-2.7118-1.4111-0.17068 0-0.88367 0.57334-1.5844 1.2741-1.6504 1.6504-3.3148 2.3604-4.4879 1.9144-1.3871-0.52738-1.9309-1.6068-3.3835-6.7162-0.94984-3.341-1.0715-3.7531-1.6135-5.468-0.79202-2.506-1.4772-3.8898-3.3188-6.7028-3.2432-4.9538-6.6128-12.835-7.7677-18.168-0.2311-1.0672-0.60416-2.5753-0.82903-3.3514-0.59767-2.0628-0.55416-19.555 0.0544-21.872 0.25478-0.97013 0.6048-2.3195 0.7778-2.9986 0.73726-2.894 1.8372-6.1548 2.7683-8.2066 1.6989-3.7438 1.6907-4.2455-0.10722-6.582-0.85824-1.1154-2.0873-3.0464-2.7313-4.2912-1.1702-2.262-1.1708-2.2661-1.1598-7.3785l0.01106-5.1153 1.334-2.6124c0.8496-1.6638 2.1266-3.4015 3.5167-4.7854 1.9595-1.9507 3.0719-2.6493 7.2648-4.5622 1.4179-0.64688 8.3973-0.47453 10.44 0.25781 2.2801 0.8174 5.2636 2.4968 7.0919 3.992 0.7961 0.65107 1.6733 1.1838 1.9493 1.1838s1.4503-0.47127 2.6095-1.0473c1.1592-0.57599 2.3083-1.0522 2.5534-1.0583 0.24517-0.0061 0.72142-0.16254 1.0583-0.34768 0.93717-0.51497 5.8971-1.8863 10.49-2.9003 2.8985-0.63989 16.914-0.64112 19.579-0.0017 1.0672 0.25606 2.9722 0.70856 4.2333 1.0056 6.5478 1.5419 13.7 4.6705 18.977 8.3014l1.518 1.0444 1.6471-1.3515c3.0879-2.5337 4.3608-2.8121 5.7767-1.2633 0.48782 0.53358 1.0946 1.6845 1.3484 2.5576 0.25381 0.87312 0.61906 2.1431 0.81167 2.8222s0.48866 1.5994 0.65787 2.0451 0.30766 1.1904 0.30766 1.6549 0.15875 0.94264 0.35278 1.0626 0.35278 0.52146 0.35278 0.89231c0 0.85627 1.4311 3.9935 2.6174 5.7379 0.50068 0.73622 0.91033 1.422 0.91033 1.5239 0 0.10195 0.44768 0.84896 0.99484 1.66 1.1565 1.7144 3.652 6.8365 4.3277 8.883 0.25626 0.77611 0.59227 1.5619 0.74669 1.7462 0.15442 0.18432 0.28076 0.69089 0.28076 1.1257 0 0.43482 0.14045 0.87738 0.3121 0.98346 0.17166 0.10609 0.39195 0.6314 0.48954 1.1674 0.0976 0.53595 0.42572 1.8656 0.72918 2.9547 0.86851 3.117 1.2915 7.4373 1.2904 13.18-1e-3 5.2372-0.46142 10.82-1.0337 12.533-0.16205 0.48507-0.49305 1.5963-0.73557 2.4694-1.2064 4.3431-1.9517 6.3778-3.4747 9.4858l-1.1045 2.2539 1.3348 1.4503c3.8617 4.1957 5.0388 7.1239 5.0453 12.55 6e-3 4.865-0.61244 6.7962-3.3781 10.553-1.5861 2.1545-5.858 5.6721-6.9008 5.6823-0.30074 3e-3 -0.69762 0.1351-0.88194 0.29371-0.68426 0.58881-4.0871 1.1782-6.7548 1.1699-4.3379-0.0135-7.273-1.2114-12.379-5.0522-1.4824-1.115-1.5357-1.1266-2.6458-0.57406-4.2069 2.094-10.505 4.0539-16.832 5.2376-2.8481 0.5329-12.207 0.71329-14.817 0.28559zm14.287-4.6978c5.6385-0.6732 7.3501-1.1492 13.229-3.6796 3.2711-1.4078 3.2663-1.3998 2.4461-4.0903-0.65177-2.138-0.79736-6.4351-0.2986-8.8135 0.8818-4.2051 2.9319-6.414 4.5737-4.9281 0.81554 0.73805 0.80568 1.0651-0.15377 5.0986-0.3 1.2612-0.55103 3.035-0.55784 3.9418-0.0133 1.7694 0.67153 5.2304 1.0349 5.2304 0.12133 0 0.84065-0.635 1.5985-1.4111 0.75785-0.77611 1.5808-1.4111 1.8288-1.4111 0.59312 0 0.76029-0.908 0.90928-4.9389 0.15509-4.1957 0.9684-5.7762 3.9512-7.6785 1.123-0.7162 1.8612-0.89552 3.758-0.91289 2.8465-0.0261 5.0557 0.95922 6.8494 3.0547 1.2531 1.464 1.4069 2.0762 1.7687 7.0407 0.18906 2.5945 0.33858 3.1522 0.92998 3.4687 0.38759 0.20743 1.3051 0.91954 2.0388 1.5825l1.3341 1.2053 0.43387-1.5496c0.68266-2.4382 0.33771-7.7816-0.63551-9.8445-1.027-2.1769-2.8123-4.1405-5.1118-5.6224-2.5257-1.6276-3.9219-2.0329-7.0028-2.0329-2.749 0-3.9382 0.26824-6.6422 1.4982-1.9959 0.90786-3.4807 0.93703-4.1069 0.0807-0.64971-0.88854-0.60516-1.3236 0.2464-2.4062 2.1541-2.7385 10.023-4.1237 15.502-2.7289 0.87313 0.22227 1.8133 0.43866 2.0892 0.48088 0.73009 0.11168 1.8104-2.1581 3.4894-7.3316 1.8897-5.8224 2.5347-10.029 2.5375-16.551 3e-3 -6.693-0.44913-10.35-1.8785-15.199-2.1132-7.1676-8.2644-18.521-10.035-18.521-0.30948 0-1.0502-0.14799-1.646-0.32887-0.59586-0.18088-1.7978-0.51148-2.6709-0.73466-3.8946-0.99551-4.45-1.1501-5.1153-1.4239-0.38806-0.15972-1.0732-0.39376-1.5225-0.52009-1.1296-0.31762-3.2404-2.2327-3.2382-2.938 2e-3 -0.63424 0.67878-1.7557 2.247-3.7236l1.0142-1.2726-1.0008-0.78726c-3.1276-2.4602-12.133-6.4703-17.079-7.605-5.3384-1.2248-6.1048-1.2973-13.758-1.3003-7.169-0.0029-8.2449 0.07627-11.112 0.81732-1.7462 0.45126-3.4925 0.9452-3.8806 1.0976-0.38806 0.15244-1.3406 0.46948-2.1167 0.70454s-2.6517 0.91403-4.1679 1.5088l-2.7568 1.0814 0.23904 1.4505c0.13147 0.79776 0.40212 1.6523 0.60145 1.8991s0.36765 2.1517 0.37404 4.2333c0.01263 4.1123-0.8052 7.5377-2.3232 9.7303-1.3781 1.9905-3.5726 4.1521-5.3722 5.2915-1.7192 1.0885-2.4075 1.4401-4.5861 2.3426-1.5446 0.63991-6.7362 0.85227-8.9958 0.36797-4.6316-0.99271-4.3439-1.1094-5.6212 2.28-0.4387 1.1642-0.9265 2.4342-1.084 2.8222-0.4576 1.1273-0.76422 2.0406-1.066 3.175-0.15485 0.58208-0.56638 2.0108-0.91449 3.175-0.53925 1.8033-1.4315 11.642-1.4315 11.642s0.9155 10.129 1.2279 11.465c0.62437 2.6707 1.1568 4.6306 1.4856 5.4681 0.15233 0.38805 0.47971 1.2612 0.72751 1.9403 0.58317 1.5982 2.3448 5.6297 2.8344 6.4865 0.20921 0.36613 0.69698 1.2393 1.0839 1.9403 0.38696 0.70102 1.4122 2.3303 2.2783 3.6206 1.5981 2.381 1.9905 2.6488 5.0657 3.4578 0.87312 0.22968 2.075 0.56559 2.6709 0.74647s1.3521 0.32887 1.6805 0.32887 0.87276 0.14328 1.2097 0.3184c0.33692 0.17511 1.3151 0.52722 2.1738 0.78247 2.523 0.74995 3.7149 1.7284 3.8294 3.1438 0.08159 1.0084-0.18345 1.5643-1.5086 3.1636-1.8272 2.2053-1.9436 1.9055 1.5394 3.9647 4.2947 2.539 9.8911 4.9243 14.863 6.335 4.5864 1.3012 14.526 1.6776 21.696 0.82157zm-7.8436-61.569c-77.328-82.544-38.664-41.272 0 0zm44.392 61.701c3.4992-1.1311 4.6917-2.1664 4.6917-4.0731 0-0.91126-0.23453-1.4309-0.8643-1.9149-1.069-0.82158-1.3211-0.82838-3.0261-0.0817-3.4771 1.5227-5.8757 1.5927-8.8276 0.2574-1.3114-0.59318-2.724-0.6461-3.674-0.13765-0.5138 0.27498-0.68236 0.7436-0.68236 1.8971 0 1.7505 0.20506 1.9776 3.074 3.4037 1.7633 0.87652 2.4545 1.0162 5.0754 1.0258 1.6688 6e-3 3.5738-0.16337 4.2333-0.37657zm-80.98-10.965c2.8697-2.726 2.8756-2.7916 0.30386-3.419-0.75931-0.18524-2.316-0.59261-3.4592-0.90526-1.1433-0.31266-2.1414-0.50575-2.2181-0.42908-0.07667 0.0767 0.0088 0.5171 0.18985 0.97873 0.18109 0.46164 0.52599 1.5537 0.76645 2.4268 0.76766 2.7874 1.1818 3.8806 1.47 3.8806 0.15446 0 1.4807-1.1397 2.9472-2.5328zm79.756 0.63889c1.5027-1.5027 1.5411-1.5981 1.5411-3.8284 0-2.5911-0.87272-4.3283-2.589-5.1536-1.3402-0.64449-3.478-0.23059-4.5163 0.87441-0.71115 0.7568-0.84692 1.305-0.93328 3.7678-0.1181 3.3679 0.2762 4.3765 2.0511 5.2465 1.9515 0.95656 2.7448 0.79478 4.4464-0.90677zm-78.441-71.992c2.3922-1.0942 2.7971-1.5852 2.6585-3.2235-0.159-1.8798-0.78075-2.1376-3.8757-1.6074-3.8893 0.66637-6.619 0.85551-7.0967 0.49173-0.23512-0.17907-1.3405-0.53638-2.4564-0.79401-2.8991-0.66935-3.792-0.21917-3.792 1.912 0 1.3739 0.15205 1.6931 1.1798 2.477 0.6489 0.49494 1.4109 0.89989 1.6933 0.89989 0.28243 0 0.66432 0.14744 0.84864 0.32763 0.51221 0.50073 2.4906 0.67819 5.8691 0.52644 2.2976-0.1032 3.5417-0.35593 4.9713-1.0098zm-15.205-9.4331c0.83388-0.55696 0.90026-0.82822 1.092-4.4632 0.17354-3.2895 0.33409-4.076 1.07-5.2418 2.8918-4.581 8.9834-5.2694 13.011-1.4705 1.5672 1.478 2.0519 3.0461 2.3021 7.4469 0.10754 1.8918 0.33986 3.4396 0.51626 3.4396s1.0873 0.71705 2.0242 1.5934l1.7035 1.5934 0.42909-1.0359c0.6898-1.6653 0.35306-8.6891-0.50059-10.441-0.95591-1.9621-4.6033-5.5095-6.7171-6.5331-1.525-0.73848-2.2655-0.85364-5.4681-0.85049-3.3001 0.0032-3.9244 0.10856-5.7229 0.96548-2.4751 1.1793-5.526 4.1101-6.4976 6.2418-1.5399 3.3784-1.9102 7.9756-0.86168 10.696l0.38336 0.99464 1.1741-1.171c0.64576-0.64406 1.5736-1.4379 2.0619-1.764zm12.083-0.06602c1.2174-1.1481 1.2598-1.2736 1.2598-3.7217 0-2.9731-0.57-4.3198-2.1651-5.1156-1.5432-0.76984-2.8139-0.69846-4.1989 0.23585-1.4594 0.9845-1.8953 2.4763-1.6235 5.5562 0.17951 2.034 0.33174 2.4026 1.3476 3.2632 1.6996 1.4398 3.7086 1.3583 5.3801-0.21804zm79.472-0.48751c-0.10265-0.33955-0.529-1.8874-0.94745-3.4396-0.41845-1.5522-0.89208-2.9565-1.0525-3.1207-0.27594-0.28229-5.6568 4.5184-5.6568 5.0469 0 0.22359 2.6461 1.0037 5.9972 1.768 1.8332 0.41811 1.8616 0.41375 1.6595-0.25461z"/>
  <path d="m109.37 169.28c-0.77611-0.17735-2.2049-0.49011-3.175-0.69502-4.6533-0.98286-10.347-3.7532-14.505-7.0583-4.2029-3.3403-8.72-8.885-10.605-13.018-4.5204-9.909-4.5362-21.245-0.04227-30.441 1.9708-4.033 4.0542-6.8839 5.6109-7.6781 1.292-0.65912 1.3143-0.65843 2.2404 0.0701 1.2369 0.97291 0.99749 2.0554-1.1983 5.419-0.91603 1.4032-2.0254 3.4849-2.4652 4.626-0.43983 1.1411-0.92972 2.3922-1.0886 2.7803-0.41549 1.0146-0.65688 2.0836-1.2347 5.468-0.78565 4.6019-0.73247 5.503 0.77588 13.145 0.10578 0.53595 0.33277 1.0613 0.50443 1.1674 0.17166 0.10609 0.3121 0.42338 0.3121 0.70508 0 1.838 3.8949 7.9361 7.1938 11.263 4.6375 4.677 10.357 7.7167 17.677 9.3938 2.5334 0.58044 11.903 0.6282 13.428 0.0684 0.56969-0.20908 2.2264-0.7501 3.6816-1.2023 2.4514-0.7617 3.445-1.213 7.7611-3.5253 2.0666-1.1072 9.1102-8.1583 10.191-10.202 1.3622-2.576 2.2394-4.3622 2.5121-5.1153 0.14052-0.38805 0.42075-1.1024 0.62275-1.5875 0.97301-2.3366 1.2904-4.7091 1.2976-9.7014 9e-3 -6.2478-0.43377-8.3983-2.7244-13.229-1.3249-2.7941-2.7388-4.9545-4.6177-7.0556-1.575-1.7612-6.2563-5.9763-6.6515-5.9891-0.13878-4e-3 -0.9803-0.46982-1.87-1.0341-4.3806-2.7781-11.267-4.6185-17.28-4.6185-6.5879 0-13.397 1.9748-18.367 5.3265-1.9598 1.3218-3.8492 1.6534-4.7542 0.83435-0.82405-0.74576-0.8877-1.8431-0.1666-2.8726 1.2462-1.7792 7.4892-5.0679 12.175-6.4136 0.67909-0.19503 1.9491-0.56379 2.8222-0.81947 2.2491-0.65861 14.772-0.64134 16.933 0.02335 6.4112 1.9717 9.1388 3.2099 13.582 6.1655 8.192 5.4494 13.111 12.682 15.39 22.627 0.28297 1.235 0.48497 4.1003 0.48497 6.8792 0 7.7876-1.8028 13.666-6.2381 20.342-3.5925 5.4069-8.1239 9.3412-14.332 12.443-2.8407 1.4196-6.7061 2.664-10.943 3.523-2.2352 0.45318-10.934 0.44349-12.938-0.0144z"/>
  <path d="m105.29 156.74c-0.46456-0.12925-0.61459-0.53647-0.60615-1.6452 0.015-1.9676 0.70521-2.7915 2.544-3.0369 1.1997-0.1601 1.5017-0.34229 1.5017-0.90596 0-0.67609-0.29473-0.71302-7.0556-0.88421-3.8806-0.0983-7.3119-0.30541-7.6251-0.46037-1.2893-0.63773-1.3707-1.6916-1.3707-17.738v-15.698l1.7318-1.7318h42.045l1.7318 1.7318v31.728l-1.8266 2.1708h-6.8589c-5.9635 0-6.8872 0.0737-7.0756 0.56475-0.26775 0.69773 0.45063 1.1866 1.7542 1.1937 1.2927 7e-3 2.7196 1.4397 2.7126 2.7234-9e-3 1.6966-0.45786 2.0094-3.0607 2.1348-2.5724 0.12386-3.5173-0.2079-3.17-1.113 0.16556-0.43148 0.71895-0.56478 2.3445-0.56478 1.6715 0 2.1277-0.11533 2.1277-0.5379 0-1.0616-1.7899-1.2621-10.313-1.1551-7.0129 0.088-8.4669 0.19351-8.7454 0.63471-0.18372 0.29104-0.33648 0.64822-0.33945 0.79375-3e-3 0.14552 2.912 0.26458 6.4778 0.26458 5.3782 0 6.5593 0.0917 6.9294 0.53769 0.24544 0.29575 0.3314 0.65293 0.19104 0.79375-0.28569 0.28664-13.078 0.46855-14.045 0.1997zm15.221-5.0287c0.27081-0.17148 0.39485-0.56592 0.27565-0.87654-0.1849-0.48183-0.96639-0.56475-5.3222-0.56475-5.1504 0-6.0002 0.2069-5.1344 1.2502 0.33411 0.40259 1.4283 0.51255 5.0575 0.50832 2.5471-3e-3 4.8527-0.1457 5.1235-0.31718zm15.95-3.5784c0.52634-0.28168 0.68065-0.66818 0.59984-1.5023l-0.10879-1.1231h-41.981l0.07617 1.0583c0.1581 2.1966-0.58242 2.1251 21.038 2.0315 13.193-0.0571 19.9-0.21 20.375-0.46442zm0.27731-5.0499c0.28394-0.34213 0.37423-3.2658 0.30778-9.966l-0.094-9.4818h-41.84v9.6179c0 5.2898 0.09681 9.7745 0.21514 9.966 0.1375 0.22249 7.5769 0.34811 20.612 0.34811 16.858 0 20.467-0.084 20.799-0.48416zm-0.38811-23.851c0.0999-2.3916 0.0702-2.4947-0.81672-2.8319-0.56706-0.21558-8.1753-0.34994-19.818-0.34994-18.528 0-18.92 0.0143-20.085 0.73432-0.96492 0.59638-1.1882 0.95552-1.1882 1.9114 0 0.64741-0.0885 1.4077-0.19668 1.6896-0.56298 1.4671-0.22596 1.4893 21.389 1.407l20.612-0.0785z"/>
 </g>
</svg>
