<?xml version="1.0" encoding="UTF-8"?>
<svg width="331.21mm" height="349.64mm" version="1.1" viewBox="0 0 331.21 349.64" xmlns="http://www.w3.org/2000/svg">
 <g transform="translate(36.171 -24.316)">
  <g transform="translate(-.27588)">
   <g transform="matrix(2.0955 0 0 2.0955 -39.839 -155.18)">
    <path d="m72.6 232.33c0 4.1093 1.795 14.094-1.0846 17.339-1.6402 1.8488-4.1234-0.15976-5.5897 1.8496 11.504 4.8543 8.3428-12.63 8.3428-19.188h-1.6686m8.3428 0v20.023c3.8168-0.63697 2.0874-12.583 2.0857-15.851-8.34e-4 -2.0344 0.25446-3.781-2.0857-4.1714m10.429 0-2.92 20.023h2.0857l2.5028-17.937h0.41714c0.64991 4.8217 2.7661 9.5166 4.1126 14.183 0.36041 1.2489 0.90937 4.2052 2.8708 3.4781 1.4546-0.53936 1.6936-3.0393 2.0769-4.3124 1.3382-4.4426 2.6134-8.8834 3.8711-13.349h0.41714l2.5028 17.937h2.0857c-0.39253-4.9665-1.4241-10.115-2.3406-15.017-0.26196-1.4016-0.18396-4.4313-1.8863-4.8651-2.2426-0.57148-2.7665 2.0327-3.2228 3.6137-1.3202 4.5769-2.9041 9.082-3.8131 13.766h-0.41714l-5.0057-17.52h-3.3371" fill="#363636"/>
    <path d="m62.589 251.52v-1.6686c-5.2009 1.6486-9.2415 0.95109-10.011-5.0057l10.429 0.41714c0-1.6435 0.15351-3.3897-0.20148-5.0053-0.84972-3.8652-6.9587-4.4876-9.7649-2.2888-4.8428 3.7947-2.5741 13.958 3.7092 14.346 1.9747 0.1218 3.9174-0.42215 5.84-0.79507m-1.2514-7.9257h-8.76c0.56247-6.8774 8.7395-7.1606 8.76 0z" fill="#54a7ab"/>
   </g>
   <path d="m102.61 25.85-33.048 87.062-48.764 43 38.363 5.9941-7.0795 56.782 29.726 29.976-11.658 25.221 37.083 40.726 13.9-83.224 45.596-29.549h34.024l0.0886-78.72 37.909-42.454-53.974-16.59-40.138 24.867 7.1265-43.251z" fill="#e4d6a7" stroke="#e4d6a7" stroke-width=".55443px"/>
   <path d="m167.02 62.719-13.818 6.6158-3.8522 11.892 14.571-6.867z" fill="#e4d6a7" stroke="#e4d6a7" stroke-width=".55443px"/>
   <g transform="matrix(2.0955 0 0 2.0955 -116.03 -155.18)" stroke="#930a03">
    <path d="m99.935 118.96 0.07994 20.707 7.1954 0.23989 3.4378 3.2779 2.9581-3.1979 7.5951-0.0799 5e-5 -21.026z" fill="#fdfcf9" stroke-linecap="round" stroke-linejoin="round" stroke-width="2.5" style="paint-order:markers fill stroke"/>
    <ellipse cx="110.57" cy="125.36" rx="2.6383" ry="2.5583" fill="none" stroke-linecap="round" stroke-linejoin="round" stroke-width="2.5" style="paint-order:markers fill stroke"/>
    <path d="m103.93 136.07 13.431 0.08s0.0799-4.2372-6.6357-4.3972c-7.0354 0.0799-6.7956 4.3172-6.7956 4.3172z" fill="none" stroke-width="1.765"/>
   </g>
   <g transform="matrix(2.0955 0 0 2.0955 -50.479 -114.07)" stroke="#930a03">
    <path d="m99.935 118.96 0.07994 20.707 7.1954 0.23989 3.4378 3.2779 2.9581-3.1979 7.5951-0.0799 5e-5 -21.026z" fill="#fdfcf9" stroke-linecap="round" stroke-linejoin="round" stroke-width="2.5" style="paint-order:markers fill stroke"/>
    <ellipse cx="110.57" cy="125.36" rx="2.6383" ry="2.5583" fill="none" stroke-linecap="round" stroke-linejoin="round" stroke-width="2.5" style="paint-order:markers fill stroke"/>
    <path d="m103.93 136.07 13.431 0.08s0.0799-4.2372-6.6357-4.3972c-7.0354 0.0799-6.7956 4.3172-6.7956 4.3172z" fill="none" stroke-width="1.765"/>
   </g>
   <g transform="matrix(2.0955 0 0 2.0955 -130.8 -51.969)" stroke="#930a03">
    <path d="m99.935 118.96 0.07994 20.707 7.1954 0.23989 3.4378 3.2779 2.9581-3.1979 7.5951-0.0799 5e-5 -21.026z" fill="#fdfcf9" stroke-linecap="round" stroke-linejoin="round" stroke-width="2.5" style="paint-order:markers fill stroke"/>
    <ellipse cx="110.57" cy="125.36" rx="2.6383" ry="2.5583" fill="none" stroke-linecap="round" stroke-linejoin="round" stroke-width="2.5" style="paint-order:markers fill stroke"/>
    <path d="m103.93 136.07 13.431 0.08s0.0799-4.2372-6.6357-4.3972c-7.0354 0.0799-6.7956 4.3172-6.7956 4.3172z" fill="none" stroke-width="1.765"/>
   </g>
  </g>
 </g>
</svg>
