<?xml version="1.0" encoding="UTF-8"?>
<svg width="331.21mm" height="349.64mm" version="1.1" viewBox="0 0 331.21 349.64" xmlns="http://www.w3.org/2000/svg">
 <g transform="translate(36.171 -24.316)">
  <path d="m177.52 344.32c-8e-3 1.1013-0.0411 2.4142-0.8706 3.2461-1.3892 1.3944-5.6907 1.3584-7.0759-0.0341-0.80885-0.8142-0.84795-2.3317-0.89528-3.4177-0.0885-2.0357-0.65655-5.9694 0.87264-7.5688 1.3337-1.394 5.664-1.531 7.0656-0.16588 0.71829 0.69976 0.82737 1.849 0.90353 2.7952h1.8523c-0.0555-1.2933-0.20376-3.05-1.1443-4.0352-1.8873-1.9795-8.3046-1.7885-10.132 0.14695-1.4942 1.584-1.0723 4.1607-1.0723 6.1522 0 2.096-0.48777 4.9101 0.63596 6.7888 1.5416 2.5799 7.01 2.216 9.4489 1.3444 2.1466-0.76748 3.4474-5.2411 0.41164-5.2518m-211.16-10.085v15.642h11.114v-1.6465h-9.2616v-5.7628h8.85v-1.4407h-8.85v-5.1453h6.3802l2.5521-0.21157 0.3293-1.4349h-11.114m50.63 0v15.642c2.4121-0.0286 1.4613-2.1849 1.4407-3.9105-0.04527-3.9092 0-7.8217 0-11.731h-1.4407m24.698 0v15.642h1.6465v-6.1744c1.9861 0 6.337-0.79321 7.6707 1.0515 0.95703 1.3234 0.56187 3.5857 0.56187 5.1229h1.6465c0-2.2144 0.91381-5.4495-1.4407-6.7918 1.7577-1.8114 2.8999-7.3088-0.20786-8.5283-2.7559-1.0809-6.9442-0.32169-9.877-0.32169m39.516 0 0.20581 1.8523h1.4407v-1.8523h-1.6465m41.986 0v15.642c2.2022-0.0261 1.6465-1.995 1.6465-3.7046v-11.937h-1.6465m19.552 0v5.557c-0.82737-0.54025-1.6877-1.0031-2.6756-1.1678-7.3208-1.2201-7.1582 13.123 0.41163 11.273 0.94469-0.23112 1.6856-0.69976 2.4698-1.2555l-0.20581 1.2349h1.6465v-15.642h-1.6465m137.48 0.41163c-2.2619 1.1357-4.742-0.52092-5.9686 2.2639 1.5621-0.53181 6.1785 0.18585 5.9686-2.2639m-236.89 7.4093v-6.1744c1.9696 0 5.4252-0.66499 7.1911 0.27127 1.5436 0.81871 1.5436 4.8132 0 5.6319-1.7659 0.93624-5.2215 0.27126-7.1911 0.27126m194.91-5.7628v2.4698h-1.2349v1.4407h1.2349c0 2.3537-0.83355 6.8622 0.75122 8.8059 1.1752 1.4415 4.7481 1.4566 5.9357 0.0144 0.67508-0.82099 0.71418-2.0478 0.72241-3.0576h-1.6465c-0.15642 1.8986-2.6406 3.8695-3.822 1.4368-0.91176-1.8803-0.29432-5.1435-0.29432-7.1996h5.3512l0.20582-1.4407h-5.557v-2.4698h-1.6465m-258.71 10.291c0.07203 0.89508 0.16053 1.9472 0.87059 2.5871 1.7597 1.586 7.611 1.4551 8.5948-0.94139 0.21405-0.5205 0.20993-1.0925 0.20787-1.6457-0.03501-4.8103-4.9354-1.7793-7.3455-3.6754-0.77592-0.61147-0.61126-1.9894 0.17288-2.5118 0.89323-0.59665 2.6715-0.54541 3.6738-0.28402 1.1937 0.31118 2.0231 1.1952 3.293 1.3258-0.36635-3.5688-7.8971-4.24-9.1464-1.028-0.17494 0.45013-0.28403 0.95601-0.28403 1.4397 0 4.6707 5.4355 1.459 7.4731 3.588 2.5048 2.618-2.5521 3.5122-4.2171 3.0098-1.4695-0.44332-1.6342-1.8443-3.293-1.864m22.434-0.82326c-2.3977 8e-3 -2.2784 2.6136-4.9395 2.8145-3.5235 0.26611-4.5197-5.4201-2.5706-7.7071 1.7041-1.9968 5.1289-0.5983 5.6578 1.5996h1.6465c-0.23052-5.0313-8.9035-5.5212-9.6115-0.61743-0.27579 1.905-0.5454 5.443 0.81914 6.9754 1.523 1.712 6.2485 1.8307 7.8538 0.14696 0.80678-0.84611 0.87882-2.1339 1.1443-3.2119m5.9686-7.116c-3.5647 0.48551-3.7046 3.0125-3.7046 6.0869 0 1.3388-0.041147 2.9995 0.90969 4.0724 1.0826 1.2217 3.1284 1.4016 4.6473 1.2198 1.0949-0.1309 2.3977-0.19778 3.2127-1.0408 1.5333-1.5903 1.5601-7.7357 0-9.3166-1.2164-1.2318-3.4741-1.2386-5.0651-1.0219m13.79 2.7939c1.8997-0.0224 5.5837-3.3282 7.1664-0.40031 0.42397 0.78312 0.19758 1.8171 0.44867 2.6643-1.9943-0.6376-4.5691-1.2946-6.5819-0.3223-1.8317 0.88438-1.9347 4.7432-0.37252 5.9352 2.3051 1.7583 5.8451-0.0214 8.3951 0.76728v-7.2035c0-1.0663 0.14818-2.3516-0.55569-3.249-1.8894-2.4041-8.1749-1.3438-8.5001 1.8083m44.044 5.1453c-2.1878 0.10188-5.8904 4.2817-7.7839 0.61435-0.38282-0.73969-0.21405-1.6747-0.44867-2.4667h8.2325c0-1.5255 0.13378-3.6756-0.9097-4.9173-1.5436-1.8346-6.5202-1.8591-8.0576 0-0.90147 1.0892-0.85001 3.1537-0.90353 4.5057-0.05554 1.4534 0.07822 3.8026 1.2699 4.8082 2.6488 2.2345 8.0679 1.0017 8.601-2.5443m10.702 2.0581c-0.24492 1.0297-0.0039 2.3724-0.75121 3.2119-1.4963 1.6774-4.9478 0.8319-5.629-1.1538h-1.6465c0.51865 3.4646 6.728 5.2204 8.8026 2.0365 0.88088-1.3501 0.66478-3.1848 0.66478-4.7121v-9.2616h-1.6465l0.20581 1.4407c-0.63185-0.59728-1.2225-1.0836-2.0581-1.366-7.7942-2.6354-8.4631 12.648-0.61744 11.079 1.0394-0.20788 1.8379-0.63741 2.6756-1.2744m13.172-9.9974c-0.99614 0.13563-2.0705 0.20685-2.8011 0.98791-1.4963 1.602-1.5395 7.4706-0.1523 9.1712 1.099 1.3462 3.6388 1.4248 5.2174 1.2194 4.0134-0.52296 5.2729-7.2391 2.795-10.21-1.1587-1.389-3.4144-1.3927-5.0589-1.169m10.291 1.1474 0.20582-1.0291-1.4942 0.47707-0.1523 3.2276v7.4093h1.6465c0-2.3243-0.72447-6.1491 0.44044-8.2295 0.89117-1.5903 3.7911-2.3763 4.9231-0.59829 1.4242 2.2359-1.1526 8.7899 2.0458 8.8278 0-4.0817 1.7474-12.809-5.1454-11.135-0.89117 0.21651-1.665 0.62753-2.4698 1.0496m10.702 1.6465c2.0067-7e-3 6.7178-3.7098 7.5184 0.41163 0.11937 0.6092 0.0967 1.2349 0.0967 1.8523-1.9882-0.64688-4.5732-1.3125-6.5778-0.2937-1.805 0.91813-1.7206 4.7782-0.19141 5.9118 2.2104 1.6385 5.9151 0.18338 8.4157 0.55632 0-2.6402 0.95704-7.7989-0.56392-10.074-1.8894-2.826-7.9897-1.3462-8.6977 1.6352m46.514 5.1453c-1.9058 7e-3 -6.5778 4.5133-7.893 0.4106-0.22639-0.70801-0.20376-1.5286-0.33959-2.2629h4.1163c1.0064 0 2.7229 0.32931 3.6388-0.1241 0.96938-0.48017 0.2017-3.8812-0.29019-4.6006-1.5765-2.3041-7.6007-2.0933-8.6689 0.60859-0.46925 1.188-0.44456 2.654-0.44249 3.9102 2e-3 1.2199 0 2.8254 0.63596 3.9074 1.2308 2.0987 6.2176 2.2598 7.965 0.73784 0.7471-0.65078 1.0126-1.6735 1.2781-2.5871m27.991-7.9393c-3.9146 0.53449-5.205 7.1907-2.7476 10.159 1.0538 1.2736 3.293 1.4059 4.8058 1.2201 1.0352-0.12719 2.264-0.24676 3.0419-1.0171 1.698-1.6844 1.6856-7.6867 0-9.3742-1.2349-1.2339-3.4968-1.2069-5.1001-0.98791m10.702 1.1474 0.20581-1.0291-1.523 0.47707-0.12348 3.2276v7.4093h1.6465c0-2.3988-0.6689-6.0131 0.37458-8.2243 0.7965-1.6873 3.4844-2.2563 4.6184-0.60407 1.2596 1.8346 0.35813 6.6356 0.35813 8.8284h1.6465c0-2.3432-0.71006-6.0937 0.32313-8.2317 0.77385-1.6004 3.0728-2.2269 4.3221-0.78003 1.5662 1.8165 0.70593 6.7476 0.70593 9.0118l1.6465-0.20581c-0.85414-3.5844 1.947-12.867-5.1454-10.923-0.90558 0.24822-1.6588 0.80043-2.4698 1.2497-1.4777-2.416-4.6678-1.2149-6.586-0.20581m18.935 0.20581v-1.2349h-1.4407v15.436h1.4407v-5.557c0.76974 0.58492 1.523 1.0241 2.4698 1.2555 7.6048 1.8564 7.5925-13.262-0.20581-11.15-0.87265 0.23648-1.5745 0.68289-2.264 1.2499m33.548 1.4407c1.947-7e-3 6.8042-3.6902 7.5472 0.41163 0.10908 0.60488 0.0679 1.2404 0.0679 1.8523-1.204-0.39146-2.4245-0.78744-3.7046-0.81214-3.1181-0.0602-5.9439 3.2811-3.4124 6.1192 1.6177 1.8157 5.2956 1.0791 7.117 0.044l1.6465 0.82326c0-2.7314 0.93646-7.6419-0.47543-10.063-1.0723-1.835-6.1991-1.7-7.7118-0.49438-0.63596 0.50858-0.83354 1.3792-1.0744 2.1193m16.259 8.6442v1.6465h1.6465v2.0581c-1.0558 0-2.6879-0.38178-3.0872 0.82325 0.98173 0 3.1675 0.41245 3.966-0.21157 0.64214-0.50054 0.66272-2.5673 0.0268-3.0759-0.44662-0.35626-1.3831-0.31489-1.9346-0.41719 0.75739-1.2474 2.1405-0.82365 3.2889-1.4695 1.3316-0.7471 1.4777-2.3117 1.6506-3.6758h-1.6465c-0.51247 2.4537-3.9372 4.2784-5.8636 1.8299-1.7124-2.1773-0.83561-7.5402 2.3648-7.5556 2.6262-0.0127 2.8588 2.4247 5.1453 2.4327-0.49602-3.675-5.6558-5.5646-8.6215-3.0061-1.7844 1.5397-1.8914 7.5748-0.34577 9.3423 0.81914 0.93583 2.2475 1.1287 3.4103 1.2789m8.2325-8.6442c1.8009-0.0214 6.8001-3.6958 7.3702 0.41163 0.0844 0.60633 0.0391 1.2415 0.0391 1.8523-1.8832-0.70223-4.7111-1.3504-6.5778-0.21858-1.7041 1.0336-1.6938 4.6403-0.17083 5.8367 2.0396 1.6014 6.0344 0.31633 8.3951 0.55631v-6.9977c0-1.0838 0.17289-2.3551-0.5454-3.2656-1.9614-2.4829-8.0452-1.2832-8.5104 1.825m15.642-2.7941c-3.7931 0.50424-3.7046 3.0541-3.7046 6.293 0 1.3542-0.0865 2.9509 0.9385 4.0068 1.451 1.4961 4.0092 1.176 5.8533 0.89756 3.5462-0.53553 3.8981-7.4142 2.1302-9.835-1.1443-1.5652-3.4741-1.594-5.2174-1.3623m-207.05 0.11855v11.114h1.4407v-11.114h-1.4406m144.07 0c0 4.1014-1.4922 12.932 5.3512 11.081 0.81091-0.2192 1.5416-0.57629 2.264-0.99635v1.0291h1.4407v-11.114h-1.6465c0 2.2919 0.81297 5.9278-0.24286 8.0265-0.95086 1.8935-3.8878 2.5424-5.1618 0.60858-1.2246-1.8622-0.35811-6.4393-0.35811-8.6351h-1.6465m-216.93 1.2937c0.96115-0.11669 2.4327-0.0856 3.1407 0.69276 1.77 1.9421 0.87471 7.5314-1.9058 7.83-0.88089 0.0947-2.5356 0.03-3.1881-0.64419-2.0355-2.1094-0.96527-7.5233 1.9532-7.8786m55.57 3.2342-6.586-0.20582c0.18523-0.75472 0.20376-1.7714 0.76151-2.364 0.96526-1.0217 4.1327-1.0237 5.1021-0.0165 0.59891 0.62383 0.61949 1.7723 0.7224 2.5863m8.4384-3.2304c4.8325-0.51906 5.2421 7.9736 0.82325 8.5166-4.4826 0.55097-4.5938-8.1117-0.82325-8.5166m17.906-4e-3c4.7049-0.5345 4.9334 8.1558 0.82325 8.5489-3.4062 0.3256-3.7046-1.955-3.7046-4.6973 0-1.0457-0.14819-2.4261 0.67919-3.2276 0.55569-0.53717 1.4777-0.5415 2.2022-0.62403m48.572 4e-3c4.8263-0.51824 5.2626 7.9712 0.82326 8.5166-4.4476 0.54664-4.4579-8.1261-0.82326-8.5166m16.465 3.2304h-6.586c0.10496-0.83272 0.14406-1.9429 0.75122-2.5863 0.95086-1.0081 4.1327-1.0081 5.0836 0 0.60715 0.64338 0.64626 1.7535 0.75122 2.5863m30.255-3.2342c3.4453-0.41904 3.6573 1.6872 3.7561 4.469 0.0371 1.0007 0.16054 2.6212-0.59685 3.393-0.5557 0.56557-1.595 0.58389-2.336 0.66375-4.5917 0.49436-4.6946-8.0547-0.82326-8.5258m32.107 2e-3c4.3283-0.51762 4.3735 8.077 0.82326 8.5188-4.9642 0.61805-5.4458-7.966-0.82326-8.5188m71.211-2e-3c4.9539-0.56887 5.1721 8.1142 1.0291 8.5234-0.88499 0.0872-2.3483-2.1e-4 -3.0234-0.64482-1.1567-1.1058-1.1567-6.0326-0.11731-7.2306 0.48161-0.5559 1.4325-0.56989 2.1116-0.64789m-264.26 4.326c1.1134-0.1807 2.902-0.2126 3.822 0.5557 1.3275 1.1095 0.29843 3.1687-1.1464 3.4301-1.0373 0.1875-3.011 0.35421-3.824-0.43324-1.2802-1.2384-0.51041-3.2838 1.1484-3.5526m89.117 0c1.1196-0.18091 2.9596-0.23174 3.822 0.64317 1.2431 1.2639 0.177 3.1251-1.3522 3.3663-1.0394 0.16403-2.8238 0.28444-3.6573-0.45691-1.3975-1.241-0.47542-3.284 1.1876-3.5526m137.69 0c1.1196-0.18091 2.9596-0.23174 3.822 0.64317 1.2431 1.2641 0.15231 3.1047-1.3522 3.3476-1.0414 0.16815-2.9514 0.32004-3.7664-0.49354-1.2802-1.2816-0.28608-3.2416 1.2966-3.4972m24.286 0c1.1155-0.18008 2.902-0.21281 3.822 0.5557 1.3254 1.1087 0.28607 3.1504-1.1464 3.4278-1.0414 0.20129-3.0069 0.34557-3.8302-0.43097-1.3357-1.2598-0.53923-3.2788 1.1546-3.5526m-225.57 14.962c1.7288-0.55261 2.7826-2.2238 3.7046-3.7046-2.1693 8e-3 -2.9164 1.8756-3.7046 3.7046m197.58 0c1.6444-0.55899 2.6859-2.2467 3.4988-3.7046-2.0417 7e-3 -2.9596 1.8692-3.4988 3.7046m-237.92 6.7918h-1.6465c-0.090553 1.1425-0.11731 2.6122-1.0558 3.4103-2.2043 1.8727-7.4175 0.9488-7.7592-2.1754-0.23875-2.1998-0.77798-7.0364 0.67095-8.8381 1.202-1.4942 5.6681-1.6245 7.0882-0.3612 0.81091 0.72344 0.86648 1.818 1.0558 2.819h1.6465c0-1.4197 0.02061-2.9942-1.0723-4.07-1.7762-1.7492-7.9238-1.7185-9.7967-0.13727-2.0046 1.691-1.4901 5.7556-1.4798 8.1177 0.0082 1.8336-0.051417 4.4771 1.344 5.8591 1.7721 1.7542 8.1399 1.8359 9.9305 0.0625 1.1978-1.1886 1.0744-3.1397 1.0744-4.6868m-36.429-10.085v5.7628c-0.68947-0.56701-1.3913-1.0134-2.264-1.2499-7.506-2.033-7.9094 12.598-0.41162 11.239 1.1093-0.20088 1.9429-0.76809 2.8814-1.3452l-0.20581 1.2349h1.6465v-15.642h-1.6465m100.64 0v15.642h1.6465v-13.79h0.20582c0.85824 3.6234 2.6818 7.2142 3.9969 10.702 0.52893 1.401 0.73681 3.2333 2.5809 3.075 1.3234-0.11382 1.5786-2.0493 1.984-3.075 1.3666-3.4478 3.1387-7.0971 3.9928-10.702h0.20581v13.79h1.6465v-15.642l-2.7373 0.21157-1.5951 3.6989-3.6944 9.8791-3.9105-9.8791-1.5848-3.6989-2.7373-0.21157m66.889 0-0.20581 15.642h1.6465c0-2.4134-0.63596-6.0203 0.5063-8.2295 0.88912-1.7218 3.682-2.2502 4.9066-0.5983 1.4284 1.9281 0.5557 6.5169 0.5557 8.8278h1.6465c0-4.0782 1.4963-12.587-5.1453-11.151-0.90146 0.19511-1.663 0.64152-2.4698 1.0663v-5.557h-1.4407m63.596 0v15.642h1.6465c0-1.2962-0.62362-4.891 0.3293-5.8445 0.66477-0.66457 2.1508-0.27518 2.9637-0.18297 1.5004 0.16979 4.3468 0.0809 5.4767-1.0513 0.82532-0.82881 0.88912-2.3146 0.90353-3.4177 0.0143-1.3156 0.0844-3.2222-0.90971-4.241-1.9244-1.974-7.8662-0.90434-10.41-0.90434m13.79 0 0.20582 1.8523h1.4407l0.20581-1.8523h-1.8523m-63.802 2.6756c2.229-0.6405 5.2297 0.30563 6.1744-2.264-2.2742 0.65327-5.0692-0.24903-6.1744 2.264m51.659 5.1453v-6.1744c1.947 0 5.2009-0.61847 6.9503 0.34021 1.3378 0.73249 1.3234 4.7996 2e-3 5.5391-1.9367 1.0832-4.8634 0.29512-6.9524 0.29512m-224.34-3.4116c-1.0476 0.13955-2.0437 0.19264-2.8382 0.98585-1.6938 1.693-1.7227 7.3943-0.16877 9.1953 1.1279 1.3057 3.2704 1.3882 4.8593 1.1982 1.0435-0.12473 2.2434-0.19759 3.0069-1.0165 1.5395-1.6547 1.5601-7.7168-0.02878-9.34-1.132-1.1558-3.3362-1.2213-4.8304-1.0229m40.134 7.9395c-1.9758 0.0922-7.1747 4.6967-8.0226 0-0.11114-0.61332-0.18318-1.2306-0.20993-1.8523h8.0267c0-1.6659 0.38076-4.0138-1.0723-5.2176-2.7908-2.3092-8.1646-0.98009-8.566 2.7478-0.20786 1.9447-0.46102 5.2437 1.0394 6.7455 2.6735 2.6725 7.9979 0.97206 8.8047-2.4234m2.4698-5.1453c1.9408-7e-3 6.8124-3.6524 7.5472 0.41162 0.10907 0.6049 0.06791 1.2404 0.06791 1.8523-1.9738-0.63123-4.3921-1.2746-6.3761-0.2937-1.8873 0.93172-2.052 4.6806-0.39311 5.9118 1.9573 1.4539 4.0875 0.36573 6.1518 0.18564 0.74093-0.0646 1.5004 0.34659 2.2639 0.37068 0-2.6641 0.9735-7.7503-0.46926-10.063-1.1114-1.7832-6.197-1.707-7.718-0.49497-0.63596 0.50836-0.83354 1.3792-1.0743 2.1193m14.407-1.6465c-0.46102-0.78846-0.95703-0.97987-1.8523-1.0291v11.114h1.6465c0-2.4446-0.47131-5.443 0.10908-7.8207 0.29226-1.1956 1.5045-2.1361 2.7723-1.9293 1.9244 0.31408 1.1731 2.5214 3.293 2.5465-0.02676-3.3126-3.2724-5.7823-5.9686-2.8814m8.0267 1.6465c1.7844-0.0212 6.8063-3.6491 7.3702 0.41162 0.08439 0.60633 0.03913 1.2415 0.03913 1.8523-1.8811-0.60159-4.4785-1.2318-6.3761-0.32231-1.8153 0.86833-1.9943 4.4962-0.57422 5.793 2.2516 2.0571 5.9974 0.0265 8.5968 0.90949v-7.2035c0-1.0601 0.15231-2.358-0.55569-3.2467-1.9017-2.3835-8.2181-1.3966-8.5001 1.806m46.925 0.20582c1.7371-0.34392 6.5613-3.7635 7.3393 1.9e-4 0.13583 0.66314 0.07 1.3845 0.07 2.0579-1.8606-0.60509-4.4929-1.225-6.3761-0.32231-1.8153 0.86833-1.9943 4.4962-0.57422 5.793 2.1796 1.9906 6.0406 0.16486 8.5968 0.90949v-6.9977c0-1.091 0.12143-2.5118-0.5948-3.4289-1.9429-2.4889-8.3787-1.4244-8.461 1.9882m13.789-1.8523v-1.0291h-1.4407v11.114h1.6465c0-2.4134-1.2637-10.2 2.8814-9.7438 2.0005 0.21981 1.2184 2.5323 3.4988 2.5404-0.18523-0.98297-0.22228-2.2069-0.82531-3.0432-1.3851-1.9248-4.2212-0.85206-5.7607 0.16176m8.4384 1.6465c1.8873-0.0223 5.5796-3.3109 7.1664-0.39969 0.42603 0.78044 0.19964 1.818 0.44868 2.6636-2.0499-0.47441-4.5217-1.3094-6.5819-0.32231-1.8894 0.90435-1.9449 4.7049-0.37252 5.9404 2.338 1.8367 5.8019-0.12143 8.3951 0.76213v-7.2035c0-1.078 0.17701-2.3611-0.5454-3.2634-1.9676-2.4535-8.0473-1.2627-8.5104 1.8227m13.79-1.6465 0.20582-1.0291h-1.6465v11.114h1.6465c0-2.351-0.70388-6.1042 0.44456-8.2295 0.82737-1.529 3.5688-2.2679 4.7913-0.77942 1.6671 2.0316 0.52689 6.5998 0.52689 9.0089h1.6465c0-4.1062 1.6691-12.477-4.9395-11.153-0.97966 0.19634-1.7803 0.65284-2.6756 1.0686m23.257 1.6465c1.7844-0.0212 6.8062-3.6505 7.3702 0.41162 0.0844 0.60633 0.0391 1.2415 0.0391 1.8523-1.8606-0.60509-4.4929-1.2248-6.3761-0.32231-1.8132 0.86833-1.9943 4.4962-0.57423 5.793 2.196 2.0056 6.0242 0.15992 8.5968 0.90949v-7.2035c0-1.0601 0.1523-2.358-0.55569-3.2467-1.9079-2.3924-8.1749-1.3779-8.5001 1.806m15.642-2.7939c-3.7582 0.51185-3.7046 3.0664-3.7046 6.2928 0 1.3026-0.14201 2.7884 0.75122 3.8664 1.0764 1.2999 3.47 1.4096 5.0116 1.2201 1.0991-0.13502 2.2454-0.31552 3.007-1.1982 1.4921-1.7309 1.4921-7.2804 0-9.0114-1.1546-1.3372-3.4474-1.3898-5.0651-1.1696m25.521 8.1451c-0.44456-0.13008-0.90764-0.28259-1.3646-0.0809-0.68329 0.30254-1.0496 1.1219-1.7227 1.4928-1.5271 0.84075-4.4806 0.58904-4.8963-1.4121-0.1379-0.66539-0.19552-1.381-0.24903-2.0579h8.0267c0-1.6889 0.37047-3.9942-1.0723-5.234-2.8196-2.4214-8.0679-0.86421-8.5413 2.7643-0.24903 1.9126-0.46308 5.268 1.0147 6.7455 2.6674 2.6661 7.7345 0.92555 8.8047-2.2176m29.02-5.3512c1.8873-0.0224 5.5796-3.3128 7.1664-0.39969 0.42603 0.78044 0.19964 1.818 0.44868 2.6636-1.2905-0.34494-2.5521-0.76048-3.9105-0.72961-3.0419 0.0695-5.8163 3.0732-3.3651 6.0344 1.5066 1.8196 5.3903 1.189 7.0697 0.0463l1.6465 0.82325v-6.9977c0-0.9735 0.18318-2.2096-0.38281-3.0656-0.63597-0.96156-1.6794-0.98297-2.7044-1.1093-2.6262-0.32333-5.3409-0.26282-5.9686 2.7342m-4.7337-2.6756v11.114h1.4407v-11.114h-1.4407m17.083 0c0 4.1908-1.6218 12.615 5.1453 11.151 0.86031-0.18585 1.5539-0.56147 2.264-1.0663 0.30872 0.85969 0.74916 1.134 1.6465 1.2349v-11.32h-1.6465c0 2.2944 0.74504 6.1989-0.43016 8.2315-0.87882 1.5191-3.5379 2.3203-4.8057 0.77736-1.5909-1.94-0.52688-6.6682-0.52688-9.0089h-1.6465m12.555 0v11.114h1.4407v-11.114h-1.4407m-278.26 1.3123c4.7708-0.25335 4.9025 8.4075 0.20582 8.54-4.1225 0.11649-4.1348-8.3313-0.20582-8.54m12.555-0.0177c4.7152-0.52317 4.958 8.1389 1.0291 8.5487-0.9344 0.0974-2.4986 0.0358-3.2045-0.67095-1.1402-1.1427-1.1114-5.8128-0.14201-7.0567 0.51247-0.65715 1.5498-0.73578 2.3175-0.82099m37.664 3.2333h-6.3802c0.06379-0.81171 0.08027-1.968 0.70594-2.5698 2.3092-2.2195 5.6516-0.13564 5.6743 2.5698m149.42-3.2335c4.6288-0.49848 4.884 8.1467 1.0291 8.5489-0.94674 0.0986-2.5089 0.0416-3.2354-0.64708-1.1402-1.0799-1.167-5.9126-0.15848-7.0911 0.57216-0.66685 1.5477-0.72262 2.3648-0.81071m23.051 3.2335h-6.586c0.20992-2.6428 3.293-4.7969 5.7052-2.5862 0.69359 0.63514 0.71828 1.72 0.88088 2.5862m-164.65 1.0888c1.1052-0.15127 2.7538-0.18112 3.6161 0.66272 1.1958 1.1717 0.3293 3.0582-1.1464 3.3262-1.0743 0.19469-2.9966 0.3365-3.8631-0.43324-1.5457-1.373-0.30872-3.3229 1.3934-3.5556m22.228 0c1.0744-0.14674 2.8052-0.16794 3.6388 0.64687 1.3172 1.2847 0.16877 3.1646-1.3748 3.371-1.0394 0.13894-2.8196 0.29555-3.647-0.46225-1.5024-1.3759-0.31489-3.3233 1.3831-3.5556m46.925 0c1.1011-0.15086 2.7826-0.19779 3.6388 0.64626 1.1896 1.1717 0.29638 3.0765-1.169 3.3426-1.0743 0.1949-2.9802 0.31963-3.8528-0.44971-1.5313-1.3516-0.28608-3.3107 1.3831-3.5392m22.228 0c1.0599-0.14509 2.9719-0.18234 3.7582 0.69215 1.0949 1.2196 0.11938 3.0419-1.2884 3.2967-0.97761 0.17678-2.8217 0.33156-3.6594-0.29082-1.6794-1.252-0.5701-3.457 1.1896-3.6981m37.046 0c1.0743-0.14674 2.8052-0.16815 3.6388 0.64687 1.3172 1.2847 0.16877 3.1646-1.3748 3.371-1.0394 0.13894-2.8196 0.29555-3.647-0.46225-1.5024-1.3759-0.31489-3.3233 1.3831-3.5556m70.388-2e-4c1.062-0.14017 2.7579-0.16652 3.5544 0.69215 1.1793 1.2695 0.22846 3.0563-1.2904 3.3019-1.0455 0.16918-2.9946 0.34145-3.822-0.45464-1.5148-1.4598-0.0618-3.3257 1.558-3.5394m-166.5 3.2335c0 1.0801-0.03088 1.9221 0.82326 2.6756v0.20582l-1.0291 1.6465c2.4224-0.27002 2.0581-2.6686 2.0581-4.5279z" fill="#2b2b2b"/>
  <path d="m-34.679 273.31v44.044h35.194v-6.1744l-0.21199-2.3457-1.8461-0.32991h-24.492v-6.1744c0-0.68042-0.2017-1.8136 0.3293-2.3457 1.0394-1.0381 5.2462-0.32992 6.6684-0.32992h19.346v-8.6442h-26.344v-8.85h26.344v-8.85h-34.988m38.693 0v44.044h8.85v-17.7c2.5583 0.45629 4.6864 3.052 6.586 4.6779 3.4268 2.933 6.8454 5.8762 10.291 8.7872 1.5107 1.2767 3.0049 2.9503 4.7337 3.9232 1.1176 0.62856 2.8732 0.3116 4.1163 0.3116h9.2616c-1.3398-1.6595-3.3033-2.973-4.9395-4.3386-5.1227-4.2735-11.48-8.3293-15.848-13.361 4.8325 0 12.318 1.48 16.465-1.4497 2.373-1.6768 2.6591-4.1192 2.9164-6.7828 0.53099-5.4909 1.2205-13.463-4.1513-16.78-3.4412-2.1244-8.2799-1.3312-12.143-1.3312h-26.138m87.882 44.044v-8.85h-33.548v-26.344h33.548v-8.85h-26.55c-3.8384 0-8.7265-0.77901-12.143 1.3312-3.3568 2.074-3.7046 6.0289-3.7046 9.5769v22.228c0 3.3397-0.03501 7.3601 3.0872 9.4458 3.3753 2.2537 8.2984 1.4623 12.143 1.4623h27.167m3.0872-44.044v44.044h34.988v-8.6442l-26.344-0.20581v-6.1744c0-0.68042-0.20169-1.8136 0.32931-2.3457 1.0394-1.0381 5.2462-0.32992 6.6684-0.32992h19.141v-8.6442h-26.138v-8.85h26.344v-8.85h-34.988m38.693 0v44.044h8.85v-24.698h0.20582c2.55 6.1332 5.629 12.168 8.5927 18.112 0.8315 1.6663 1.7268 5.2976 3.2704 6.3745 0.62361 0.4357 1.8214 0.21157 2.5438 0.21157h5.9686c0.75738 0 1.9285 0.21508 2.5438-0.32992 1.5992-1.416 2.5953-5.1336 3.4885-7.0794 2.5809-5.6232 6.4564-11.345 8.1688-17.288h0.20581v24.698h8.85v-44.044h-6.1744l-2.5438 0.21157-1.6239 2.8756-3.293 6.586-12.503 25.521-12.503-25.521-3.1387-6.3802-1.7268-3.0814-2.5953-0.21157h-6.586m57.628 44.044h8.6442v-12.76c0-1.0844-0.48571-3.7929 0.32931-4.6096 1.0394-1.0381 5.2462-0.32992 6.6684-0.32992h19.346v17.7h8.85v-27.373c0-3.8142 0.8953-8.9298-1.1278-12.349-2.4471-4.1369-6.5099-4.3221-10.809-4.3221h-21.199c-3.5791 0-7.3702 0.35749-9.4777 3.7048-2.1343 3.3914-1.2246 8.518-1.2246 12.349v27.991m48.572-44.044v44.044h8.85v-17.7h20.787c3.2601 0 7.1314 0.6016 10.085-1.0649 3.3013-1.8632 3.4988-5.6488 3.4988-9.02 0-5.5592 1.0641-12.115-4.7337-15.251-3.4309-1.8562-8.3725-1.0087-12.143-1.0087h-26.344m46.514 0v44.044h8.6442v-44.044h-8.6442m-248.83 8.85v9.2616h-24.698v-9.2616h24.698m188.73 0v8.85h-26.344v-8.85h26.344m48.16 0v8.85h-25.727v-8.85h25.727" fill="#37387d"/>
  <path d="m258.05 76.439v8.4667c3.9264 0 8.7789-0.58711 11.827 2.4609 3.0004 2.9998 2.7252 7.9095 2.7252 11.827 0 8.9678 0.381 18.029-0.0106 26.987-0.26987 6.1394 0.30163 13.303 5.8314 17.198v0.26458c-5.424 3.8211-5.8208 10.392-5.8208 16.404v27.781c0 4.0018 0.28311 9.0988-2.9554 12.047-3.085 2.8067-7.7576 2.2405-11.597 2.2405v8.4667c5.6012 0 12.084 0.37227 16.933-2.9689 4.9027-3.3766 5.4928-9.5864 5.5562-15.023 0.0847-7.0406 0.26459-14.106 0.26459-21.167 0-6.4011-2.5876-19.506 4.4979-22.912 2.6961-1.2965 6.096-0.90038 8.9958-0.90038v-8.2021c-3.0189 0-6.7945 0.50403-9.525-1.0811-2.1881-1.2711-3.2808-3.6793-3.7544-6.0627-1.0398-5.229-0.21431-11.341-0.21431-16.669 0-7.0625-0.26459-14.122-0.26459-21.167 0-4.9511-0.6006-11.053-4.7651-14.415-4.9027-3.955-11.806-3.5766-17.724-3.5766" fill="#37397c"/>
  <path d="m-36.171 139.41v8.2021c2.8991 0 6.2988-0.39634 8.9958 0.90038 7.0135 3.3716 4.4979 16.34 4.4979 22.648 0 7.8317-0.3061 15.744 0.2409 23.548 0.30723 4.3836 1.118 9.376 4.7872 12.298 4.8719 3.8801 11.592 3.5766 17.461 3.5766v-8.4667c-3.842 0-8.6032 0.55906-11.593-2.4302-3.084-3.084-2.6948-8.1277-2.6948-12.122v-27.781c0-5.8804-0.53914-12.417-5.8208-16.14v-0.26458c5.2464-3.6981 5.8208-10.298 5.8208-16.14v-27.781c0-3.9942-0.38923-9.0379 2.6948-12.122 2.9704-2.9699 7.7697-2.4302 11.593-2.4302v-8.4667c-5.6039 0-12.129-0.32279-16.933 3.1192-4.139 2.9652-5.0924 8.2735-5.3021 13.02-0.34213 7.7454-0.25416 15.518-0.25416 23.283 0 5.2631 0.78063 11.241-0.26562 16.404-0.50575 2.4963-1.5955 4.9271-3.9677 6.1717-2.7055 1.4198-6.313 0.97208-9.2604 0.97208" fill="#37397c"/>
  <path d="m56.169 24.316-4.8747 12.965-10.319 28.046-3.8058 10.319-1.1864 4.2333 2.7231 3.175 32.279 32.279h0.26458l33.382-36.777 12.202-13.494 4.9514-5.8208c-6.3574 1.6449-12.915 2.5292-19.315 4.0002-1.8563 0.42677-5.8677 1.9791-7.6576 1.1988-1.552-0.67628-1.6446-3.4981-1.8889-4.9345-0.54081-3.1795-1.1713-6.3571-1.7785-9.525-0.2196-1.1453-0.20161-2.8561-1.0017-3.7677-2.6435-3.0127-7.8327-5.2086-11.221-7.3589-7.5655-4.8008-14.926-10.18-22.754-14.538m17.992 92.604c10.302 2.3831 20.581 5.8936 30.692 9.0024 2.8996 0.89138 5.8256 1.6936 8.7312 2.5651 1.3314 0.39925 3.0927 1.2896 4.4979 1.1901 1.2846-0.091 2.3352-1.5994 3.175-2.4389 2.1156-2.1154 4.2569-4.2085 6.346-6.35 0.78396-0.80328 2.2225-1.9997 2.3879-3.175 0.18257-1.2983-1.2954-3.3253-1.818-4.4979-1.7841-4.0029-3.8539-7.8841-5.593-11.906-0.65935-1.5248-2.7178-4.1579-1.6886-5.8169 1.6523-2.6638 5.4004-4.9562 7.774-6.9953 4.7011-4.0386 9.3292-8.164 14.023-12.211 2.594-2.2368 5.9364-4.4738 7.9375-7.2559l-17.198-7.5205-6.591-2.5516-4.037 3.9867-10.054 11.112-25.136 27.781-13.449 15.081m-40.481-34.396-32.544 32.544v0.26459c5.8679 5.8679 11.333 12.125 17.198 17.992 1.7005 1.7013 4.0045 5.5507 6.35 6.2701 0.98557 0.30215 2.3312-0.75565 3.175-1.1777 2.6651-1.3335 5.2731-2.7673 7.9375-4.0995 10.855-5.4274 22.065-10.752 32.544-16.868-1.9243-4.1262-7.3663-7.8954-10.583-11.112l-15.61-15.61c-2.7083-2.7083-5.3345-5.9957-8.4667-8.2021m39.158 37.306-0.52917 53.446c3.5203-0.83423 6.9943-2.7032 10.319-4.1219 7.2525-3.0946 14.531-6.4796 21.96-9.1231 5.6539-2.0119 13.336-2.6379 19.315-2.8945-0.26723-5.8505-3.0824-12.35-4.6503-17.992-0.44133-1.5888-0.63924-4.9715-1.8923-6.1029-0.82021-0.74031-2.4792-0.89297-3.5116-1.2152-2.9829-0.93106-5.9926-1.796-8.9958-2.6591-7.4213-2.1331-14.813-4.3736-22.225-6.5392-3.1943-0.93346-6.4992-2.3122-9.7896-2.7982m-22.754 111.92h0.26458l4.586-14.023 9.525-28.31 4.5514-13.758 0.14684-12.965 0.50535-42.333c-3.5594 1.047-7.0205 3.5208-10.319 5.2234-7.0633 3.6454-14.137 7.2652-21.167 10.974-2.7173 1.4338-5.4568 2.8646-8.2021 4.2407-1.2256 0.61436-3.0983 1.1665-4.0103 2.2198-0.90435 1.0446-1.0954 3.0297-1.469 4.3294l-2.7228 9.525c-0.9144 3.1724-1.7523 6.3736-2.7361 9.525-0.35639 1.1419-1.3039 3.0462-0.88133 4.2333 0.90884 2.5535 4.889 5.2403 6.7924 7.1438 3.4208 3.4208 6.7315 7.0279 10.319 10.274 2.8453 2.5747 6.3735 5.3361 8.5585 8.5116 1.7989 2.6144 1.7095 7.4956 2.2241 10.583 1.3494 8.096 3.3838 16.433 4.0341 24.606" fill="#089ad9"/>
  <path transform="scale(.26458)" d="m563.5 330.99c-1.0207-0.0278-2.0899 0.0518-3.207 0.25391-19.039 3.444-12.906 32.158 6 28.312 16.666-3.3909 12.518-28.149-2.793-28.566z" fill="#e2e729" style="paint-order:markers fill stroke"/>
  <path d="m162.53 73.264-2.8665 25.929-5.6441 51.329-2.8665 26.723 12.435-3.3274 21.167-5.933c-0.96891-3.543-2.9247-6.9506-4.3857-10.319-2.9498-6.8008-5.9806-13.567-8.9178-20.373-1.4986-3.4726-4.5257-7.8618-4.8866-11.642-0.26961-2.8239 1.9905-6.6323 2.9258-9.2604 1.3888-3.9021 4.1143-8.795 4.254-12.965 0.0685-2.0436-0.70194-4.3532-1.1078-6.35-1.1494-5.6568-2.3995-11.297-3.6446-16.933-0.3302-1.4957-0.4236-5.0697-1.6277-6.0886-1.0094-0.85408-3.5663-0.76438-4.8345-0.79058m-14.552 102.66 1.896-16.404 3.175-28.84 3.9688-35.719 2.0727-19.315c-2.5538 1.1906-4.7805 3.9029-6.8792 5.7769-4.4836 4.0037-9.0694 7.9042-13.494 11.973-1.369 1.2589-5.8962 4.0659-5.8327 6.0627 0.0458 1.4348 1.3248 3.2044 1.9008 4.4979 1.6949 3.806 3.4615 7.5785 5.1739 11.377 0.63553 1.4094 2.3884 3.9875 2.0918 5.5562-0.27358 1.4486-2.0849 2.7199-3.0692 3.7042l-6.8792 6.8792c-0.89879 0.89879-2.336 1.9243-2.7403 3.175-0.33735 1.0435 0.27093 2.4244 0.52493 3.4396 0.66278 2.6509 1.3867 5.2858 2.0495 7.9375 1.4536 5.814 2.122 13.164 4.8114 18.521 0.82894 1.6513 2.5323 2.9445 3.8211 4.2333 2.372 2.372 4.6643 5.2107 7.4083 7.1438m0.26458-88.28c4.7292-0.8554 6.291 6.5339 1.5875 7.4909-5.0022 1.0176-6.6249-6.5797-1.5875-7.4909m-91.281 160.25c2.5027-1.1152 4.699-3.342 6.8792-4.9927 4.6024-3.4848 9.1474-7.0459 13.758-10.519 16.133-12.151 32.006-24.646 48.154-36.777 5.3192-3.9957 10.624-8.0325 15.875-12.117 0.96758-0.75274 5.0353-3.0017 4.671-4.396-0.56303-2.1569-4.4347-4.7805-5.9939-6.3397-1.5759-1.5759-3.4917-4.3699-5.5562-5.2607-0.99431-0.42889-2.4101 0.0691-3.4396 0.19261-2.6482 0.31777-5.2972 0.65035-7.9375 1.0276-4.8522 0.6932-10.081 0.77575-14.817 2.0532-5.9367 1.6015-11.817 4.9173-17.463 7.3533l-9.7896 4.1987c-1.2795 0.54927-3.2978 1.0038-4.2749 2.028-1.1009 1.1541-1.3224 3.5962-1.8108 5.076-1.3896 4.2108-2.6593 8.4656-3.9751 12.7-4.7032 15.134-10.71 30.338-14.281 45.773m127.79-76.729c-7.7766 2.9768-16.326 4.5702-24.342 6.8421-2.5553 0.72417-7.6777 1.1076-9.6404 2.9059-0.76861 0.70432-0.86783 2.2532-1.1089 3.2165-0.68315 2.7329-1.3089 5.488-2.063 8.2021-2.9276 10.535-5.8798 21.308-8.0899 32.015 3.5055-1.5105 6.7635-3.8851 10.054-5.8179 6.0955-3.5804 12.191-7.1662 18.256-10.798l7.6729-4.5508c1.1359-0.68157 2.7318-1.2962 3.5089-2.409 0.94085-1.3478 0.98954-3.6785 1.3065-5.2639 0.79216-3.9616 1.511-7.9394 2.2762-11.906 0.6596-3.4192 2.966-9.062 2.1688-12.435m-38.365 12.435-59.796 45.661-18.521 14.166-9.2604 7.3776h23.812c2.8273 0 7.4007 0.88133 10.03-0.15954 1.4626-0.57891 2.8302-2.6466 3.8402-3.8092 2.5477-2.9326 6.6051-5.8317 8.4317-9.2604 0.56303-1.0573-0.34872-2.2371-0.80275-3.175-1.2658-2.6165-2.4979-5.2729-3.6602-7.9375-0.48366-1.1089-1.7746-3.0239-0.31618-3.9214 1.9664-1.2099 6.4765 0.25796 8.6707 0.46196 5.9103 0.54954 11.835 1.2232 17.727 1.9473 2.4516 0.3011 6.2973 1.4674 8.6932 0.88847 0.96255-0.23257 1.0615-1.4856 1.2623-2.2868 0.61833-2.4686 1.179-4.9599 1.874-7.4083 2.0849-7.3464 3.6605-14.839 5.6023-22.225 0.77867-2.9618 2.7969-7.2787 2.412-10.319" fill="#0098da"/>
  <path d="m178.94 73.793 4.6101 21.431 1.7047 8.4667-1.9934 6.6146-4.586 13.758 30.956 5.8208c-2.4241-19.165-4.6638-38.689-8.2021-57.679l-22.49 1.5875m25.929 0.52917c3.4245 18.379 5.5914 37.278 7.9375 55.827l32.808-7.2962 12.965-3.0226c-7.2231-7.7269-16.555-14.108-24.606-20.974-9.5014-8.1018-18.801-17.489-29.104-24.534m20.108 105.57h0.26459c0.52281-6.6143 2.4138-13.313 3.593-19.844 0.51329-2.858 0.51858-7.0673 2.1484-9.525 1.061-1.5973 2.7226-2.8173 4.0031-4.2333 6.948-7.6787 16.039-14.284 22.005-22.754l-32.279 7.0882-7.9375 1.696-2.8993 0.89668 0.35216 3.2837 2.0516 8.4667 5.8208 23.548 2.8768 11.377m-45.508-52.388 7.3266 16.669 8.2838 18.256c2.3061-2.7832 3.5208-7.0646 5.0953-10.319 2.952-6.1008 7.0514-12.536 8.9276-19.05l-19.05-3.652-10.583-1.9042m31.485 9.2604-7.7412 16.14-6.536 14.023-1.8624 10.054 17.992 5.4822 10.319 2.9845c-3.1493-11.18-5.5507-22.599-8.368-33.867-1.1396-4.5585-1.5952-10.695-3.8028-14.817" fill="#0098da"/>
 </g>
</svg>
